<svg xmlns="http://www.w3.org/2000/svg" xmlns:xlink="http://www.w3.org/1999/xlink" width="500" zoomAndPan="magnify" viewBox="0 0 375 374.999991" height="500" preserveAspectRatio="xMidYMid meet" version="1.0"><defs><clipPath id="4daa3105bb"><path d="M 128 71.695312 L 170 71.695312 L 170 107 L 128 107 Z M 128 71.695312 " clip-rule="nonzero"/></clipPath><clipPath id="e582381b70"><path d="M 263 224 L 304.378906 224 L 304.378906 260 L 263 260 Z M 263 224 " clip-rule="nonzero"/></clipPath><clipPath id="d9d15f06b2"><path d="M 120 292 L 149 292 L 149 303.445312 L 120 303.445312 Z M 120 292 " clip-rule="nonzero"/></clipPath><clipPath id="e74fa6a03a"><path d="M 75 288 L 103 288 L 103 303.445312 L 75 303.445312 Z M 75 288 " clip-rule="nonzero"/></clipPath><clipPath id="635d213958"><path d="M 170 240 L 268 240 L 268 303.445312 L 170 303.445312 Z M 170 240 " clip-rule="nonzero"/></clipPath><clipPath id="975be8620e"><path d="M 170 240 L 269 240 L 269 303.445312 L 170 303.445312 Z M 170 240 " clip-rule="nonzero"/></clipPath><clipPath id="445ff4a9f8"><path d="M 193 269 L 246 269 L 246 303.445312 L 193 303.445312 Z M 193 269 " clip-rule="nonzero"/></clipPath><clipPath id="67f52b0ccb"><path d="M 192 269 L 246 269 L 246 303.445312 L 192 303.445312 Z M 192 269 " clip-rule="nonzero"/></clipPath><clipPath id="8a264dddf4"><path d="M 165 302 L 175 302 L 175 303.445312 L 165 303.445312 Z M 165 302 " clip-rule="nonzero"/></clipPath><clipPath id="87b7cf9e5a"><path d="M 178 302 L 189 302 L 189 303.445312 L 178 303.445312 Z M 178 302 " clip-rule="nonzero"/></clipPath><clipPath id="e0de89a867"><path d="M 259 302 L 274 302 L 274 303.445312 L 259 303.445312 Z M 259 302 " clip-rule="nonzero"/></clipPath><clipPath id="c8f5341697"><path d="M 278 302 L 285 302 L 285 303.445312 L 278 303.445312 Z M 278 302 " clip-rule="nonzero"/></clipPath></defs><path fill="#eef4ff" d="M 293.839844 212.308594 C 291.765625 225.59375 285.628906 239.058594 274.125 246.015625 C 265.734375 251.121094 255.496094 252.117188 245.660156 252.117188 C 235.828125 252.117188 225.949219 251.210938 216.25 252.972656 C 209.753906 254.148438 202.175781 255.777344 198.203125 261.015625 C 191.574219 269.78125 182.957031 277.824219 172.175781 279.8125 C 161.394531 281.800781 150.25 280.21875 139.46875 278.277344 C 129.183594 276.46875 118.671875 274.253906 109.832031 268.699219 C 100.988281 263.140625 93.949219 253.515625 94.3125 243.078125 C 94.761719 228.753906 108.339844 217.234375 108.433594 202.910156 C 108.566406 188.40625 95.347656 177.832031 88.222656 165.226562 C 80.238281 150.992188 80.238281 132.738281 88.132812 118.550781 C 96.027344 104.363281 111.589844 94.828125 127.785156 94.195312 C 152.460938 93.246094 173.796875 111.140625 197.933594 116.519531 C 208.445312 118.867188 219.316406 118.777344 229.871094 120.808594 C 250.039062 124.742188 268.488281 136.761719 280.308594 153.613281 C 292.082031 170.46875 297.042969 191.976562 293.839844 212.308594 Z M 293.839844 212.308594 " fill-opacity="1" fill-rule="nonzero"/><path stroke-linecap="round" transform="matrix(0.451116, 0, 0, 0.451842, 30.614303, 29.44762)" fill-opacity="1" fill="#ffffff" fill-rule="nonzero" stroke-linejoin="round" d="M 368.398009 381.298333 C 354.803264 381.298333 343.797582 370.197947 343.797582 356.702852 L 343.797582 157.198488 C 343.797582 143.599651 354.898514 132.603007 368.398009 132.603007 L 567.799149 132.603007 C 581.402553 132.603007 592.399576 143.703393 592.399576 157.198488 L 592.399576 356.59911 C 592.399576 370.197947 581.298644 381.203237 567.799149 381.203237 L 368.398009 381.203237 Z M 368.398009 381.298333 " stroke="#112544" stroke-width="1.5" stroke-opacity="1" stroke-miterlimit="10"/><path stroke-linecap="round" transform="matrix(0.451116, 0, 0, 0.451842, 30.614303, 29.44762)" fill-opacity="1" fill="#e1e5ff" fill-rule="nonzero" stroke-linejoin="round" d="M 580.398101 157.198488 L 580.398101 356.59911 C 580.398101 363.60169 574.70043 369.203754 567.799149 369.203754 L 368.398009 369.203754 C 361.401478 369.203754 355.799057 363.497948 355.799057 356.59911 L 355.799057 157.198488 C 355.799057 150.195908 361.496727 144.602489 368.398009 144.602489 L 567.799149 144.602489 C 574.79568 144.498747 580.398101 150.195908 580.398101 157.198488 Z M 580.398101 157.198488 " stroke="#112544" stroke-width="1.5" stroke-opacity="1" stroke-miterlimit="10"/><path fill="#ccd2ff" d="M 282.832031 172.863281 L 282.832031 186.328125 C 282.832031 187.59375 281.796875 188.632812 280.53125 188.632812 L 200.820312 188.632812 C 199.558594 188.632812 198.519531 187.59375 198.519531 186.328125 L 198.519531 172.863281 C 198.519531 171.597656 199.558594 170.558594 200.820312 170.558594 L 280.53125 170.558594 C 281.796875 170.601562 282.832031 171.597656 282.832031 172.863281 Z M 282.832031 172.863281 " fill-opacity="1" fill-rule="nonzero"/><path stroke-linecap="round" transform="matrix(0.451116, 0, 0, 0.451842, 30.614303, 29.44762)" fill-opacity="1" fill="#ffffff" fill-rule="nonzero" stroke-linejoin="round" d="M 562.898114 313.304148 L 562.898114 343.104015 C 562.898114 345.896402 560.603459 348.196015 557.797919 348.196015 L 381.100869 348.196015 C 378.303989 348.196015 376.000675 345.896402 376.000675 343.104015 L 376.000675 313.304148 C 376.000675 310.503116 378.303989 308.203503 381.100869 308.203503 L 557.797919 308.203503 C 560.603459 308.203503 562.898114 310.503116 562.898114 313.304148 Z M 562.898114 313.304148 " stroke="#112544" stroke-width="1.5" stroke-opacity="1" stroke-miterlimit="10"/><path fill="#ccd2ff" d="M 282.832031 146.382812 L 282.832031 159.847656 C 282.832031 161.113281 281.796875 162.152344 280.53125 162.152344 L 200.820312 162.152344 C 199.558594 162.152344 198.519531 161.113281 198.519531 159.847656 L 198.519531 146.382812 C 198.519531 145.121094 199.558594 144.078125 200.820312 144.078125 L 280.53125 144.078125 C 281.796875 144.078125 282.832031 145.074219 282.832031 146.382812 Z M 282.832031 146.382812 " fill-opacity="1" fill-rule="nonzero"/><path stroke-linecap="round" transform="matrix(0.451116, 0, 0, 0.451842, 30.614303, 29.44762)" fill-opacity="1" fill="#ffffff" fill-rule="nonzero" stroke-linejoin="round" d="M 562.898114 254.603509 L 562.898114 284.403377 C 562.898114 287.195763 560.603459 289.504021 557.797919 289.504021 L 381.100869 289.504021 C 378.303989 289.504021 376.000675 287.195763 376.000675 284.403377 L 376.000675 254.603509 C 376.000675 251.802477 378.303989 249.502865 381.100869 249.502865 L 557.797919 249.502865 C 560.603459 249.502865 562.898114 251.802477 562.898114 254.603509 Z M 562.898114 254.603509 " stroke="#112544" stroke-width="1.5" stroke-opacity="1" stroke-miterlimit="10"/><path fill="#ccd2ff" d="M 256.625 119.953125 C 256.625 129.214844 249.136719 136.761719 239.84375 136.761719 C 230.59375 136.761719 223.0625 129.257812 223.0625 119.953125 C 223.0625 110.644531 230.550781 103.144531 239.84375 103.144531 C 249.089844 103.144531 256.625 110.6875 256.625 119.953125 Z M 256.625 119.953125 " fill-opacity="1" fill-rule="nonzero"/><path stroke-linecap="round" transform="matrix(0.451116, 0, 0, 0.451842, 30.614303, 29.44762)" fill-opacity="1" fill="#ffffff" fill-rule="nonzero" stroke-linejoin="round" d="M 505.297958 196.196806 C 505.297958 216.703126 488.698514 233.396931 468.098579 233.396931 C 447.498643 233.396931 430.8992 216.798223 430.8992 196.196806 C 430.8992 175.604034 447.498643 158.996681 468.098579 158.996681 C 488.698514 158.996681 505.297958 175.604034 505.297958 196.196806 Z M 505.297958 196.196806 " stroke="#112544" stroke-width="1.5" stroke-opacity="1" stroke-miterlimit="10"/><path fill="#efa130" d="M 245.617188 111.773438 C 245.617188 113.898438 243.902344 115.613281 241.78125 115.613281 C 240.5625 115.613281 239.480469 115.027344 238.757812 114.167969 C 238.21875 113.535156 237.902344 112.675781 237.902344 111.773438 C 237.902344 109.648438 239.617188 107.933594 241.738281 107.933594 C 242.144531 107.933594 242.546875 107.976562 242.910156 108.113281 C 244.488281 108.609375 245.617188 110.054688 245.617188 111.773438 Z M 245.617188 111.773438 " fill-opacity="1" fill-rule="nonzero"/><path fill="#ffc25e" d="M 243.765625 110.507812 C 243.765625 112.632812 242.050781 114.347656 239.933594 114.347656 C 239.527344 114.347656 239.121094 114.304688 238.757812 114.167969 C 238.21875 113.535156 237.902344 112.675781 237.902344 111.773438 C 237.902344 109.648438 239.617188 107.933594 241.738281 107.933594 C 242.144531 107.933594 242.546875 107.976562 242.910156 108.113281 C 243.449219 108.792969 243.765625 109.605469 243.765625 110.507812 Z M 243.765625 110.507812 " fill-opacity="1" fill-rule="nonzero"/><path stroke-linecap="round" transform="matrix(0.451116, 0, 0, 0.451842, 30.614303, 29.44762)" fill="none" stroke-linejoin="round" d="M 476.601789 182.200292 C 476.601789 186.903259 472.800456 190.698484 468.098579 190.698484 C 463.396702 190.698484 459.604028 186.903259 459.604028 182.200292 C 459.604028 177.497324 463.396702 173.702099 468.098579 173.702099 C 472.800456 173.702099 476.601789 177.497324 476.601789 182.200292 Z M 476.601789 182.200292 " stroke="#112544" stroke-width="1.5" stroke-opacity="1" stroke-miterlimit="10"/><path fill="#efa130" d="M 250.351562 126.863281 L 233.164062 126.863281 C 232.578125 126.863281 232.128906 126.367188 232.171875 125.78125 C 232.171875 125.601562 232.21875 125.417969 232.261719 125.285156 C 233.03125 120.765625 237 117.285156 241.738281 117.285156 C 242.910156 117.285156 244.039062 117.511719 245.074219 117.875 C 248.414062 119.09375 250.894531 122.121094 251.300781 125.78125 C 251.390625 126.324219 250.941406 126.863281 250.351562 126.863281 Z M 250.351562 126.863281 " fill-opacity="1" fill-rule="nonzero"/><path fill="#ffc25e" d="M 247.554688 125.238281 L 232.261719 125.238281 C 233.03125 120.71875 237 117.242188 241.738281 117.242188 C 242.910156 117.242188 244.039062 117.464844 245.074219 117.828125 C 246.925781 119.363281 248.1875 121.578125 248.503906 124.109375 C 248.59375 124.742188 248.144531 125.238281 247.554688 125.238281 Z M 247.554688 125.238281 " fill-opacity="1" fill-rule="nonzero"/><path stroke-linecap="round" transform="matrix(0.451116, 0, 0, 0.451842, 30.614303, 29.44762)" fill="none" stroke-linejoin="round" d="M 487.096586 215.596546 C 488.404106 215.596546 489.399899 214.49861 489.29599 213.201836 C 487.997129 202.60287 479.000352 194.398613 468.098579 194.398613 C 457.196806 194.398613 448.200028 202.60287 446.901167 213.201836 C 446.702009 214.49861 447.801711 215.596546 449.100572 215.596546 Z M 487.096586 215.596546 " stroke="#112544" stroke-width="1.5" stroke-opacity="1" stroke-miterlimit="10"/><path fill="#757bff" d="M 213.859375 151.21875 C 213.859375 153.386719 212.097656 155.105469 209.976562 155.105469 C 208.761719 155.105469 207.632812 154.519531 206.910156 153.613281 C 206.371094 152.9375 206.054688 152.078125 206.054688 151.175781 C 206.054688 149.003906 207.8125 147.242188 209.976562 147.242188 C 210.382812 147.242188 210.789062 147.289062 211.152344 147.421875 C 212.730469 148.011719 213.859375 149.503906 213.859375 151.21875 Z M 213.859375 151.21875 " fill-opacity="1" fill-rule="nonzero"/><path fill="#8d95ff" d="M 212.007812 149.953125 C 212.007812 152.121094 210.25 153.886719 208.128906 153.886719 C 207.722656 153.886719 207.316406 153.839844 206.957031 153.703125 C 206.414062 153.027344 206.097656 152.167969 206.097656 151.265625 C 206.097656 149.09375 207.859375 147.332031 210.023438 147.332031 C 210.429688 147.332031 210.835938 147.378906 211.195312 147.515625 C 211.691406 148.148438 212.007812 149.003906 212.007812 149.953125 Z M 212.007812 149.953125 " fill-opacity="1" fill-rule="nonzero"/><path stroke-linecap="round" transform="matrix(0.451116, 0, 0, 0.451842, 30.614303, 29.44762)" fill="none" stroke-linejoin="round" d="M 406.203523 269.49912 C 406.203523 274.297184 402.298281 278.196152 397.596404 278.196152 C 392.799277 278.196152 388.997944 274.297184 388.997944 269.49912 C 388.997944 264.701056 392.903186 260.897186 397.596404 260.897186 C 402.298281 260.897186 406.203523 264.701056 406.203523 269.49912 Z M 406.203523 269.49912 " stroke="#112544" stroke-width="1.5" stroke-opacity="1" stroke-miterlimit="10"/><path fill="#757bff" d="M 226.851562 151.21875 C 226.851562 153.386719 225.089844 155.105469 222.96875 155.105469 C 221.753906 155.105469 220.625 154.519531 219.902344 153.613281 C 219.363281 152.9375 219.046875 152.078125 219.046875 151.175781 C 219.046875 149.003906 220.804688 147.242188 222.96875 147.242188 C 223.375 147.242188 223.78125 147.289062 224.144531 147.421875 C 225.722656 148.011719 226.851562 149.503906 226.851562 151.21875 Z M 226.851562 151.21875 " fill-opacity="1" fill-rule="nonzero"/><path fill="#8d95ff" d="M 225 149.953125 C 225 152.121094 223.242188 153.886719 221.121094 153.886719 C 220.714844 153.886719 220.308594 153.839844 219.949219 153.703125 C 219.40625 153.027344 219.089844 152.167969 219.089844 151.265625 C 219.089844 149.09375 220.851562 147.332031 223.015625 147.332031 C 223.421875 147.332031 223.828125 147.378906 224.1875 147.515625 C 224.683594 148.148438 225 149.003906 225 149.953125 Z M 225 149.953125 " fill-opacity="1" fill-rule="nonzero"/><path stroke-linecap="round" transform="matrix(0.451116, 0, 0, 0.451842, 30.614303, 29.44762)" fill="none" stroke-linejoin="round" d="M 435.003601 269.49912 C 435.003601 274.297184 431.098359 278.196152 426.396482 278.196152 C 421.599355 278.196152 417.798022 274.297184 417.798022 269.49912 C 417.798022 264.701056 421.703264 260.897186 426.396482 260.897186 C 431.202268 260.897186 435.003601 264.701056 435.003601 269.49912 Z M 435.003601 269.49912 " stroke="#112544" stroke-width="1.5" stroke-opacity="1" stroke-miterlimit="10"/><path fill="#757bff" d="M 239.886719 151.21875 C 239.886719 153.386719 238.128906 155.105469 236.007812 155.105469 C 234.789062 155.105469 233.660156 154.519531 232.941406 153.613281 C 232.398438 152.9375 232.082031 152.078125 232.082031 151.175781 C 232.082031 149.003906 233.84375 147.242188 236.007812 147.242188 C 236.414062 147.242188 236.820312 147.289062 237.179688 147.421875 C 238.757812 148.011719 239.886719 149.503906 239.886719 151.21875 Z M 239.886719 151.21875 " fill-opacity="1" fill-rule="nonzero"/><path fill="#8d95ff" d="M 237.992188 149.953125 C 237.992188 152.121094 236.234375 153.886719 234.113281 153.886719 C 233.707031 153.886719 233.300781 153.839844 232.941406 153.703125 C 232.398438 153.027344 232.082031 152.167969 232.082031 151.265625 C 232.082031 149.09375 233.84375 147.332031 236.007812 147.332031 C 236.414062 147.332031 236.820312 147.378906 237.179688 147.515625 C 237.675781 148.148438 237.992188 149.003906 237.992188 149.953125 Z M 237.992188 149.953125 " fill-opacity="1" fill-rule="nonzero"/><path stroke-linecap="round" transform="matrix(0.451116, 0, 0, 0.451842, 30.614303, 29.44762)" fill="none" stroke-linejoin="round" d="M 463.898928 269.49912 C 463.898928 274.297184 460.002345 278.196152 455.300469 278.196152 C 450.503342 278.196152 446.702009 274.297184 446.702009 269.49912 C 446.702009 264.701056 450.598592 260.897186 455.300469 260.897186 C 460.002345 260.897186 463.898928 264.701056 463.898928 269.49912 Z M 463.898928 269.49912 " stroke="#112544" stroke-width="1.5" stroke-opacity="1" stroke-miterlimit="10"/><path fill="#757bff" d="M 252.878906 151.21875 C 252.878906 153.386719 251.121094 155.105469 249 155.105469 C 247.78125 155.105469 246.652344 154.519531 245.933594 153.613281 C 245.390625 152.9375 245.074219 152.078125 245.074219 151.175781 C 245.074219 149.003906 246.835938 147.242188 249 147.242188 C 249.40625 147.242188 249.8125 147.289062 250.171875 147.421875 C 251.75 148.011719 252.878906 149.503906 252.878906 151.21875 Z M 252.878906 151.21875 " fill-opacity="1" fill-rule="nonzero"/><path fill="#8d95ff" d="M 251.03125 149.953125 C 251.03125 152.121094 249.269531 153.886719 247.148438 153.886719 C 246.746094 153.886719 246.339844 153.839844 245.976562 153.703125 C 245.4375 153.027344 245.121094 152.167969 245.121094 151.265625 C 245.121094 149.09375 246.878906 147.332031 249.042969 147.332031 C 249.449219 147.332031 249.855469 147.378906 250.21875 147.515625 C 250.714844 148.148438 251.03125 149.003906 251.03125 149.953125 Z M 251.03125 149.953125 " fill-opacity="1" fill-rule="nonzero"/><path stroke-linecap="round" transform="matrix(0.451116, 0, 0, 0.451842, 30.614303, 29.44762)" fill="none" stroke-linejoin="round" d="M 492.699006 269.49912 C 492.699006 274.297184 488.802423 278.196152 484.100546 278.196152 C 479.30342 278.196152 475.502087 274.297184 475.502087 269.49912 C 475.502087 264.701056 479.39867 260.897186 484.100546 260.897186 C 488.897673 260.897186 492.699006 264.701056 492.699006 269.49912 Z M 492.699006 269.49912 " stroke="#112544" stroke-width="1.5" stroke-opacity="1" stroke-miterlimit="10"/><path fill="#757bff" d="M 265.917969 151.21875 C 265.917969 153.386719 264.15625 155.105469 262.035156 155.105469 C 260.820312 155.105469 259.691406 154.519531 258.96875 153.613281 C 258.429688 152.9375 258.113281 152.078125 258.113281 151.175781 C 258.113281 149.003906 259.871094 147.242188 262.035156 147.242188 C 262.441406 147.242188 262.847656 147.289062 263.210938 147.421875 C 264.742188 148.011719 265.917969 149.503906 265.917969 151.21875 Z M 265.917969 151.21875 " fill-opacity="1" fill-rule="nonzero"/><path fill="#8d95ff" d="M 264.023438 149.953125 C 264.023438 152.121094 262.261719 153.886719 260.140625 153.886719 C 259.738281 153.886719 259.332031 153.839844 258.96875 153.703125 C 258.429688 153.027344 258.113281 152.167969 258.113281 151.265625 C 258.113281 149.09375 259.871094 147.332031 262.035156 147.332031 C 262.441406 147.332031 262.847656 147.378906 263.210938 147.515625 C 263.707031 148.148438 264.023438 149.003906 264.023438 149.953125 Z M 264.023438 149.953125 " fill-opacity="1" fill-rule="nonzero"/><path stroke-linecap="round" transform="matrix(0.451116, 0, 0, 0.451842, 30.614303, 29.44762)" fill="none" stroke-linejoin="round" d="M 521.602993 269.49912 C 521.602993 274.297184 517.697751 278.196152 512.995874 278.196152 C 508.198747 278.196152 504.397414 274.297184 504.397414 269.49912 C 504.397414 264.701056 508.302656 260.897186 512.995874 260.897186 C 517.697751 260.897186 521.602993 264.701056 521.602993 269.49912 Z M 521.602993 269.49912 " stroke="#112544" stroke-width="1.5" stroke-opacity="1" stroke-miterlimit="10"/><path fill="#757bff" d="M 213.859375 177.742188 C 213.859375 179.910156 212.097656 181.628906 209.976562 181.628906 C 208.761719 181.628906 207.632812 181.039062 206.910156 180.136719 C 206.371094 179.460938 206.054688 178.601562 206.054688 177.695312 C 206.054688 175.527344 207.8125 173.765625 209.976562 173.765625 C 210.382812 173.765625 210.789062 173.8125 211.152344 173.945312 C 212.730469 174.535156 213.859375 175.980469 213.859375 177.742188 Z M 213.859375 177.742188 " fill-opacity="1" fill-rule="nonzero"/><path fill="#8d95ff" d="M 212.007812 176.433594 C 212.007812 178.601562 210.25 180.363281 208.128906 180.363281 C 207.722656 180.363281 207.316406 180.316406 206.957031 180.183594 C 206.414062 179.503906 206.097656 178.644531 206.097656 177.742188 C 206.097656 175.574219 207.859375 173.8125 210.023438 173.8125 C 210.429688 173.8125 210.835938 173.855469 211.195312 173.992188 C 211.691406 174.667969 212.007812 175.527344 212.007812 176.433594 Z M 212.007812 176.433594 " fill-opacity="1" fill-rule="nonzero"/><path stroke-linecap="round" transform="matrix(0.451116, 0, 0, 0.451842, 30.614303, 29.44762)" fill="none" stroke-linejoin="round" d="M 406.203523 328.199759 C 406.203523 332.997823 402.298281 336.89679 397.596404 336.89679 C 392.799277 336.89679 388.997944 332.997823 388.997944 328.199759 C 388.997944 323.401695 392.903186 319.597824 397.596404 319.597824 C 402.298281 319.597824 406.203523 323.401695 406.203523 328.199759 Z M 406.203523 328.199759 " stroke="#112544" stroke-width="1.5" stroke-opacity="1" stroke-miterlimit="10"/><path fill="#757bff" d="M 226.851562 177.742188 C 226.851562 179.910156 225.089844 181.628906 222.96875 181.628906 C 221.753906 181.628906 220.625 181.039062 219.902344 180.136719 C 219.363281 179.460938 219.046875 178.601562 219.046875 177.695312 C 219.046875 175.527344 220.804688 173.765625 222.96875 173.765625 C 223.375 173.765625 223.78125 173.8125 224.144531 173.945312 C 225.722656 174.535156 226.851562 175.980469 226.851562 177.742188 Z M 226.851562 177.742188 " fill-opacity="1" fill-rule="nonzero"/><path fill="#8d95ff" d="M 225 176.433594 C 225 178.601562 223.242188 180.363281 221.121094 180.363281 C 220.714844 180.363281 220.308594 180.316406 219.949219 180.183594 C 219.40625 179.503906 219.089844 178.644531 219.089844 177.742188 C 219.089844 175.574219 220.851562 173.8125 223.015625 173.8125 C 223.421875 173.8125 223.828125 173.855469 224.1875 173.992188 C 224.683594 174.667969 225 175.527344 225 176.433594 Z M 225 176.433594 " fill-opacity="1" fill-rule="nonzero"/><path stroke-linecap="round" transform="matrix(0.451116, 0, 0, 0.451842, 30.614303, 29.44762)" fill="none" stroke-linejoin="round" d="M 435.003601 328.199759 C 435.003601 332.997823 431.098359 336.89679 426.396482 336.89679 C 421.599355 336.89679 417.798022 332.997823 417.798022 328.199759 C 417.798022 323.401695 421.703264 319.597824 426.396482 319.597824 C 431.202268 319.597824 435.003601 323.401695 435.003601 328.199759 Z M 435.003601 328.199759 " stroke="#112544" stroke-width="1.5" stroke-opacity="1" stroke-miterlimit="10"/><path fill="#757bff" d="M 239.886719 177.742188 C 239.886719 179.910156 238.128906 181.628906 236.007812 181.628906 C 234.789062 181.628906 233.660156 181.039062 232.941406 180.136719 C 232.398438 179.460938 232.082031 178.601562 232.082031 177.695312 C 232.082031 175.527344 233.84375 173.765625 236.007812 173.765625 C 236.414062 173.765625 236.820312 173.8125 237.179688 173.945312 C 238.757812 174.535156 239.886719 175.980469 239.886719 177.742188 Z M 239.886719 177.742188 " fill-opacity="1" fill-rule="nonzero"/><path fill="#8d95ff" d="M 237.992188 176.433594 C 237.992188 178.601562 236.234375 180.363281 234.113281 180.363281 C 233.707031 180.363281 233.300781 180.316406 232.941406 180.183594 C 232.398438 179.503906 232.082031 178.644531 232.082031 177.742188 C 232.082031 175.574219 233.84375 173.8125 236.007812 173.8125 C 236.414062 173.8125 236.820312 173.855469 237.179688 173.992188 C 237.675781 174.667969 237.992188 175.527344 237.992188 176.433594 Z M 237.992188 176.433594 " fill-opacity="1" fill-rule="nonzero"/><path stroke-linecap="round" transform="matrix(0.451116, 0, 0, 0.451842, 30.614303, 29.44762)" fill="none" stroke-linejoin="round" d="M 463.898928 328.199759 C 463.898928 332.997823 460.002345 336.89679 455.300469 336.89679 C 450.503342 336.89679 446.702009 332.997823 446.702009 328.199759 C 446.702009 323.401695 450.598592 319.597824 455.300469 319.597824 C 460.002345 319.597824 463.898928 323.401695 463.898928 328.199759 Z M 463.898928 328.199759 " stroke="#112544" stroke-width="1.5" stroke-opacity="1" stroke-miterlimit="10"/><path fill="#757bff" d="M 252.878906 177.742188 C 252.878906 179.910156 251.121094 181.628906 249 181.628906 C 247.78125 181.628906 246.652344 181.039062 245.933594 180.136719 C 245.390625 179.460938 245.074219 178.601562 245.074219 177.695312 C 245.074219 175.527344 246.835938 173.765625 249 173.765625 C 249.40625 173.765625 249.8125 173.8125 250.171875 173.945312 C 251.75 174.535156 252.878906 175.980469 252.878906 177.742188 Z M 252.878906 177.742188 " fill-opacity="1" fill-rule="nonzero"/><path fill="#8d95ff" d="M 251.03125 176.433594 C 251.03125 178.601562 249.269531 180.363281 247.148438 180.363281 C 246.746094 180.363281 246.339844 180.316406 245.976562 180.183594 C 245.4375 179.503906 245.121094 178.644531 245.121094 177.742188 C 245.121094 175.574219 246.878906 173.8125 249.042969 173.8125 C 249.449219 173.8125 249.855469 173.855469 250.21875 173.992188 C 250.714844 174.667969 251.03125 175.527344 251.03125 176.433594 Z M 251.03125 176.433594 " fill-opacity="1" fill-rule="nonzero"/><path stroke-linecap="round" transform="matrix(0.451116, 0, 0, 0.451842, 30.614303, 29.44762)" fill="none" stroke-linejoin="round" d="M 492.699006 328.199759 C 492.699006 332.997823 488.802423 336.89679 484.100546 336.89679 C 479.30342 336.89679 475.502087 332.997823 475.502087 328.199759 C 475.502087 323.401695 479.39867 319.597824 484.100546 319.597824 C 488.897673 319.597824 492.699006 323.401695 492.699006 328.199759 Z M 492.699006 328.199759 " stroke="#112544" stroke-width="1.5" stroke-opacity="1" stroke-miterlimit="10"/><path fill="#757bff" d="M 265.917969 177.742188 C 265.917969 179.910156 264.15625 181.628906 262.035156 181.628906 C 260.820312 181.628906 259.691406 181.039062 258.96875 180.136719 C 258.429688 179.460938 258.113281 178.601562 258.113281 177.695312 C 258.113281 175.527344 259.871094 173.765625 262.035156 173.765625 C 262.441406 173.765625 262.847656 173.8125 263.210938 173.945312 C 264.742188 174.535156 265.917969 175.980469 265.917969 177.742188 Z M 265.917969 177.742188 " fill-opacity="1" fill-rule="nonzero"/><path fill="#8d95ff" d="M 264.023438 176.433594 C 264.023438 178.601562 262.261719 180.363281 260.140625 180.363281 C 259.738281 180.363281 259.332031 180.316406 258.96875 180.183594 C 258.429688 179.503906 258.113281 178.644531 258.113281 177.742188 C 258.113281 175.574219 259.871094 173.8125 262.035156 173.8125 C 262.441406 173.8125 262.847656 173.855469 263.210938 173.992188 C 263.707031 174.667969 264.023438 175.527344 264.023438 176.433594 Z M 264.023438 176.433594 " fill-opacity="1" fill-rule="nonzero"/><path stroke-linecap="round" transform="matrix(0.451116, 0, 0, 0.451842, 30.614303, 29.44762)" fill="none" stroke-linejoin="round" d="M 521.602993 328.199759 C 521.602993 332.997823 517.697751 336.89679 512.995874 336.89679 C 508.198747 336.89679 504.397414 332.997823 504.397414 328.199759 C 504.397414 323.401695 508.302656 319.597824 512.995874 319.597824 C 517.697751 319.597824 521.602993 323.401695 521.602993 328.199759 Z M 521.602993 328.199759 " stroke="#112544" stroke-width="1.5" stroke-opacity="1" stroke-miterlimit="10"/><path fill="#ffffff" d="M 169.378906 76.484375 L 169.378906 101.742188 C 169.378906 104.183594 167.394531 106.171875 164.957031 106.171875 L 133.738281 106.171875 C 131.304688 106.171875 129.320312 104.183594 129.320312 101.742188 L 129.320312 76.484375 C 129.320312 74.042969 131.304688 72.054688 133.738281 72.054688 L 164.957031 72.054688 C 167.4375 72.054688 169.378906 74.042969 169.378906 76.484375 Z M 169.378906 76.484375 " fill-opacity="1" fill-rule="nonzero"/><path fill="#ccd2ff" d="M 169.378906 76.484375 L 169.378906 101.742188 C 169.378906 104.183594 167.394531 106.171875 164.957031 106.171875 L 133.738281 106.171875 C 132.070312 106.171875 130.582031 105.222656 129.859375 103.820312 C 130.445312 104.09375 131.078125 104.226562 131.710938 104.226562 L 162.925781 104.226562 C 165.363281 104.226562 167.347656 102.238281 167.347656 99.800781 L 167.347656 74.585938 C 167.347656 73.820312 167.167969 73.140625 166.804688 72.507812 C 168.339844 73.1875 169.378906 74.722656 169.378906 76.484375 Z M 169.378906 76.484375 " fill-opacity="1" fill-rule="nonzero"/><g clip-path="url(#4daa3105bb)"><path stroke-linecap="round" transform="matrix(0.451116, 0, 0, 0.451842, 30.614303, 29.44762)" fill="none" stroke-linejoin="round" d="M 307.602655 104.099913 L 307.602655 159.99952 C 307.602655 165.402745 303.203846 169.803132 297.800584 169.803132 L 228.59727 169.803132 C 223.202668 169.803132 218.803858 165.402745 218.803858 159.99952 L 218.803858 104.099913 C 218.803858 98.696688 223.202668 94.296302 228.59727 94.296302 L 297.800584 94.296302 C 303.299096 94.296302 307.602655 98.696688 307.602655 104.099913 Z M 307.602655 104.099913 " stroke="#112544" stroke-width="1.5" stroke-opacity="1" stroke-miterlimit="10"/></g><path fill="#ffffff" d="M 303.992188 229.207031 L 303.992188 254.464844 C 303.992188 256.90625 302.007812 258.894531 299.570312 258.894531 L 268.351562 258.894531 C 265.917969 258.894531 263.933594 256.90625 263.933594 254.464844 L 263.933594 229.207031 C 263.933594 226.765625 265.917969 224.777344 268.351562 224.777344 L 299.570312 224.777344 C 302.007812 224.824219 303.992188 226.765625 303.992188 229.207031 Z M 303.992188 229.207031 " fill-opacity="1" fill-rule="nonzero"/><path fill="#ccd2ff" d="M 303.992188 229.207031 L 303.992188 254.464844 C 303.992188 256.90625 302.007812 258.894531 299.570312 258.894531 L 268.351562 258.894531 C 266.683594 258.894531 265.195312 257.945312 264.472656 256.542969 C 265.058594 256.816406 265.691406 256.949219 266.324219 256.949219 L 297.539062 256.949219 C 299.976562 256.949219 301.960938 254.960938 301.960938 252.523438 L 301.960938 227.265625 C 301.960938 226.496094 301.78125 225.816406 301.417969 225.1875 C 302.953125 225.910156 303.992188 227.445312 303.992188 229.207031 Z M 303.992188 229.207031 " fill-opacity="1" fill-rule="nonzero"/><g clip-path="url(#e582381b70)"><path stroke-linecap="round" transform="matrix(0.451116, 0, 0, 0.451842, 30.614303, 29.44762)" fill="none" stroke-linejoin="round" d="M 606.00298 442.099746 L 606.00298 497.999352 C 606.00298 503.402577 601.604171 507.802964 596.200909 507.802964 L 526.997596 507.802964 C 521.602993 507.802964 517.204184 503.402577 517.204184 497.999352 L 517.204184 442.099746 C 517.204184 436.696521 521.602993 432.296134 526.997596 432.296134 L 596.200909 432.296134 C 601.604171 432.399876 606.00298 436.696521 606.00298 442.099746 Z M 606.00298 442.099746 " stroke="#112544" stroke-width="1.5" stroke-opacity="1" stroke-miterlimit="10"/></g><path stroke-linecap="round" transform="matrix(0.451116, 0, 0, 0.451842, 30.614303, 29.44762)" fill="none" stroke-linejoin="round" d="M 263.302836 169.803132 L 263.302836 227.302093 L 343.702332 227.302093 " stroke="#112544" stroke-width="1.5" stroke-opacity="1" stroke-miterlimit="10"/><path stroke-linecap="round" transform="matrix(0.451116, 0, 0, 0.451842, 30.614303, 29.44762)" fill="none" stroke-linejoin="round" d="M 517.299433 470.499097 L 461.803433 470.499097 L 461.803433 381.998591 " stroke="#112544" stroke-width="1.5" stroke-opacity="1" stroke-miterlimit="10"/><path fill="#e1e5ff" d="M 144.519531 97.179688 C 143.257812 96.410156 142.3125 95.417969 141.589844 94.195312 C 140.914062 92.929688 140.550781 91.621094 140.550781 90.175781 C 140.550781 88.414062 141.003906 86.742188 141.90625 85.203125 C 142.808594 83.667969 144.023438 82.449219 145.558594 81.5 C 147.09375 80.597656 148.761719 80.097656 150.519531 80.097656 C 152.144531 80.097656 153.632812 80.460938 154.988281 81.136719 C 156.339844 81.816406 157.46875 82.808594 158.28125 84.03125 C 159.09375 85.25 159.5 86.652344 159.5 88.230469 C 159.5 89.226562 159.363281 90.175781 159.046875 91.035156 C 158.730469 91.9375 158.28125 92.660156 157.605469 93.203125 C 156.972656 93.789062 156.113281 94.0625 155.121094 94.0625 C 154.355469 94.0625 153.722656 93.878906 153.273438 93.5625 C 152.820312 93.203125 152.550781 92.796875 152.460938 92.34375 C 151.964844 92.929688 151.378906 93.382812 150.703125 93.699219 C 150.023438 93.972656 149.304688 94.152344 148.535156 94.152344 C 147.273438 94.152344 146.28125 93.746094 145.605469 92.976562 C 144.882812 92.207031 144.519531 91.214844 144.519531 89.996094 C 144.519531 88.820312 144.792969 87.78125 145.332031 86.921875 C 145.875 86.0625 146.550781 85.386719 147.410156 84.933594 C 148.265625 84.480469 149.167969 84.257812 150.113281 84.257812 C 151.289062 84.257812 152.28125 84.664062 153.136719 85.476562 L 153.226562 85.070312 C 153.273438 84.84375 153.363281 84.707031 153.542969 84.574219 C 153.722656 84.4375 153.90625 84.347656 154.128906 84.347656 C 154.355469 84.347656 154.582031 84.4375 154.714844 84.574219 C 154.898438 84.753906 154.941406 84.933594 154.941406 85.203125 L 154.898438 85.476562 L 154.128906 89.949219 C 154.039062 90.535156 153.949219 91.035156 153.949219 91.484375 C 153.949219 91.9375 154.039062 92.300781 154.265625 92.570312 C 154.445312 92.839844 154.761719 93.023438 155.167969 93.023438 C 156.160156 93.023438 156.882812 92.613281 157.421875 91.757812 C 157.964844 90.898438 158.234375 89.769531 158.234375 88.324219 C 158.234375 86.875 157.875 85.613281 157.105469 84.574219 C 156.386719 83.53125 155.394531 82.71875 154.21875 82.222656 C 153.046875 81.679688 151.785156 81.410156 150.519531 81.410156 C 148.988281 81.410156 147.5 81.816406 146.191406 82.628906 C 144.835938 83.441406 143.753906 84.527344 142.988281 85.882812 C 142.175781 87.238281 141.769531 88.683594 141.769531 90.265625 C 141.769531 91.441406 142.039062 92.523438 142.625 93.609375 C 143.167969 94.695312 143.980469 95.550781 145.0625 96.183594 C 146.144531 96.863281 147.363281 97.179688 148.851562 97.179688 C 149.800781 97.179688 150.65625 97.089844 151.332031 96.90625 C 152.054688 96.726562 152.867188 96.457031 153.769531 96.09375 C 153.859375 96.050781 153.949219 96.050781 154.039062 96.050781 C 154.21875 96.050781 154.355469 96.09375 154.445312 96.230469 C 154.535156 96.320312 154.625 96.457031 154.625 96.636719 C 154.625 96.726562 154.582031 96.863281 154.535156 96.953125 C 154.492188 97.042969 154.402344 97.132812 154.308594 97.179688 C 152.640625 97.992188 150.835938 98.445312 148.851562 98.445312 C 147.226562 98.308594 145.785156 97.945312 144.519531 97.179688 Z M 152.597656 89.226562 L 152.957031 87.011719 C 152.28125 86.289062 151.378906 85.929688 150.296875 85.929688 C 149.617188 85.929688 148.988281 86.0625 148.402344 86.378906 C 147.8125 86.695312 147.316406 87.101562 146.957031 87.691406 C 146.597656 88.277344 146.414062 88.957031 146.414062 89.769531 C 146.414062 90.671875 146.6875 91.351562 147.183594 91.847656 C 147.679688 92.300781 148.355469 92.523438 149.121094 92.523438 C 151.109375 92.523438 152.234375 91.394531 152.597656 89.226562 Z M 152.597656 89.226562 " fill-opacity="1" fill-rule="nonzero"/><path fill="#8d95ff" d="M 143.890625 96.589844 C 142.625 95.824219 141.679688 94.828125 140.957031 93.609375 C 140.28125 92.34375 139.917969 91.035156 139.917969 89.585938 C 139.917969 87.824219 140.371094 86.152344 141.273438 84.617188 C 142.175781 83.082031 143.394531 81.863281 144.925781 80.914062 C 146.460938 80.007812 148.128906 79.511719 149.890625 79.511719 C 151.511719 79.511719 153.003906 79.875 154.355469 80.550781 C 155.707031 81.230469 156.835938 82.222656 157.648438 83.441406 C 158.460938 84.664062 158.867188 86.0625 158.867188 87.644531 C 158.867188 88.640625 158.730469 89.585938 158.414062 90.445312 C 158.101562 91.351562 157.648438 92.074219 156.972656 92.613281 C 156.339844 93.203125 155.484375 93.472656 154.492188 93.472656 C 153.722656 93.472656 153.09375 93.292969 152.640625 92.976562 C 152.191406 92.613281 151.917969 92.207031 151.828125 91.757812 C 151.332031 92.34375 150.746094 92.796875 150.070312 93.113281 C 149.394531 93.382812 148.671875 93.5625 147.90625 93.5625 C 146.640625 93.5625 145.648438 93.15625 144.972656 92.390625 C 144.25 91.621094 143.890625 90.628906 143.890625 89.40625 C 143.890625 88.230469 144.160156 87.191406 144.703125 86.335938 C 145.242188 85.476562 145.917969 84.796875 146.777344 84.347656 C 147.632812 83.894531 148.535156 83.667969 149.484375 83.667969 C 150.65625 83.667969 151.648438 84.074219 152.507812 84.890625 L 152.597656 84.480469 C 152.640625 84.257812 152.730469 84.121094 152.910156 83.984375 C 153.09375 83.847656 153.273438 83.757812 153.5 83.757812 C 153.722656 83.757812 153.949219 83.847656 154.085938 83.984375 C 154.265625 84.164062 154.308594 84.347656 154.308594 84.617188 L 154.265625 84.890625 L 153.5 89.363281 C 153.40625 89.949219 153.316406 90.445312 153.316406 90.898438 C 153.316406 91.351562 153.410156 91.710938 153.632812 91.984375 C 153.8125 92.253906 154.128906 92.433594 154.535156 92.433594 C 155.527344 92.433594 156.25 92.027344 156.792969 91.167969 C 157.332031 90.3125 157.605469 89.179688 157.605469 87.734375 C 157.605469 86.289062 157.242188 85.023438 156.476562 83.984375 C 155.753906 82.945312 154.761719 82.132812 153.589844 81.636719 C 152.414062 81.09375 151.152344 80.820312 149.890625 80.820312 C 148.355469 80.820312 146.867188 81.230469 145.558594 82.042969 C 144.207031 82.855469 143.121094 83.941406 142.355469 85.296875 C 141.542969 86.652344 141.136719 88.097656 141.136719 89.679688 C 141.136719 90.851562 141.410156 91.9375 141.996094 93.023438 C 142.535156 94.105469 143.347656 94.964844 144.429688 95.597656 C 145.511719 96.273438 146.730469 96.589844 148.21875 96.589844 C 149.167969 96.589844 150.023438 96.5 150.703125 96.320312 C 151.421875 96.140625 152.234375 95.867188 153.136719 95.507812 C 153.226562 95.460938 153.316406 95.460938 153.40625 95.460938 C 153.589844 95.460938 153.722656 95.507812 153.8125 95.640625 C 153.90625 95.734375 153.996094 95.867188 153.996094 96.050781 C 153.996094 96.140625 153.949219 96.273438 153.90625 96.367188 C 153.859375 96.457031 153.769531 96.546875 153.679688 96.589844 C 152.007812 97.40625 150.207031 97.855469 148.21875 97.855469 C 146.597656 97.722656 145.152344 97.359375 143.890625 96.589844 Z M 151.964844 88.59375 L 152.324219 86.378906 C 151.648438 85.65625 150.746094 85.296875 149.664062 85.296875 C 148.988281 85.296875 148.355469 85.429688 147.769531 85.746094 C 147.183594 86.0625 146.6875 86.46875 146.324219 87.058594 C 145.964844 87.644531 145.785156 88.324219 145.785156 89.136719 C 145.785156 90.039062 146.054688 90.71875 146.550781 91.214844 C 147.046875 91.667969 147.722656 91.890625 148.492188 91.890625 C 150.476562 91.890625 151.605469 90.808594 151.964844 88.59375 Z M 151.964844 88.59375 " fill-opacity="1" fill-rule="nonzero"/><path fill="#e1e5ff" d="M 291.179688 239.960938 L 289.601562 239.960938 L 289.601562 238.0625 C 289.601562 235.398438 287.433594 233.183594 284.726562 233.183594 C 282.066406 233.183594 279.855469 235.351562 279.855469 238.0625 L 279.855469 239.960938 L 278.683594 239.960938 C 278.097656 239.960938 277.644531 240.414062 277.644531 241 L 277.644531 251.484375 C 277.644531 252.070312 278.097656 252.523438 278.683594 252.523438 L 291.179688 252.523438 C 291.765625 252.523438 292.214844 252.070312 292.214844 251.484375 L 292.214844 241 C 292.214844 240.414062 291.765625 239.960938 291.179688 239.960938 Z M 287.929688 239.960938 L 281.523438 239.960938 L 281.523438 238.0625 C 281.523438 236.300781 282.96875 234.855469 284.726562 234.855469 C 286.488281 234.855469 287.929688 236.300781 287.929688 238.0625 Z M 287.929688 239.960938 " fill-opacity="1" fill-rule="nonzero"/><path fill="#fc6054" d="M 290.230469 238.921875 L 288.652344 238.921875 L 288.652344 237.023438 C 288.652344 234.359375 286.488281 232.144531 283.78125 232.144531 C 281.121094 232.144531 278.910156 234.3125 278.910156 237.023438 L 278.910156 238.921875 L 277.734375 238.921875 C 277.148438 238.921875 276.699219 239.375 276.699219 239.960938 L 276.699219 250.445312 C 276.699219 251.03125 277.148438 251.484375 277.734375 251.484375 L 290.230469 251.484375 C 290.816406 251.484375 291.269531 251.03125 291.269531 250.445312 L 291.269531 239.960938 C 291.269531 239.417969 290.816406 238.921875 290.230469 238.921875 Z M 286.984375 238.921875 L 280.578125 238.921875 L 280.578125 237.023438 C 280.578125 235.261719 282.019531 233.816406 283.78125 233.816406 C 285.539062 233.816406 286.984375 235.261719 286.984375 237.023438 Z M 286.984375 238.921875 " fill-opacity="1" fill-rule="nonzero"/><path fill="#ffffff" d="M 285.089844 247.597656 L 282.878906 247.597656 C 282.742188 247.597656 282.652344 247.460938 282.699219 247.371094 L 283.285156 245.113281 C 282.96875 244.886719 282.789062 244.523438 282.789062 244.117188 C 282.789062 243.441406 283.328125 242.898438 284.007812 242.898438 C 284.683594 242.898438 285.222656 243.441406 285.222656 244.117188 C 285.222656 244.523438 285 244.886719 284.726562 245.113281 L 285.316406 247.371094 C 285.316406 247.460938 285.222656 247.597656 285.089844 247.597656 Z M 285.089844 247.597656 " fill-opacity="1" fill-rule="nonzero"/><path fill="#fcbba4" d="M 134.507812 292.195312 C 134.507812 292.195312 131.214844 297.253906 123.09375 292.960938 L 123.046875 292.328125 L 122.640625 286.953125 L 134.011719 286.953125 L 134.234375 289.121094 Z M 134.507812 292.195312 " fill-opacity="1" fill-rule="nonzero"/><path fill="#f2a07c" d="M 134.234375 289.121094 C 134.101562 289.078125 133.921875 289.078125 133.785156 289.03125 C 132.792969 288.804688 131.800781 288.445312 130.761719 288.398438 C 129.722656 288.351562 128.597656 288.714844 128.101562 289.617188 C 127.785156 290.207031 127.785156 290.929688 127.425781 291.472656 C 126.972656 292.285156 125.933594 292.644531 124.988281 292.691406 C 124.3125 292.691406 123.679688 292.554688 123.046875 292.328125 L 122.640625 286.953125 L 134.011719 286.953125 Z M 134.234375 289.121094 " fill-opacity="1" fill-rule="nonzero"/><path fill="#fcbba4" d="M 91.605469 284.558594 L 91.152344 288.804688 L 91.0625 289.800781 C 91.0625 289.800781 87.363281 293.503906 81.140625 289.300781 C 80.6875 288.984375 80.191406 288.625 79.742188 288.261719 L 80.554688 282.296875 Z M 91.605469 284.558594 " fill-opacity="1" fill-rule="nonzero"/><path fill="#f2a07c" d="M 91.605469 284.558594 L 91.152344 288.804688 C 90.027344 288.667969 88.945312 288.21875 87.859375 287.8125 C 86.371094 287.3125 84.703125 286.90625 83.304688 287.628906 C 82.492188 288.035156 81.859375 288.761719 81.140625 289.257812 C 80.6875 288.941406 80.191406 288.578125 79.742188 288.21875 L 80.554688 282.253906 Z M 91.605469 284.558594 " fill-opacity="1" fill-rule="nonzero"/><path stroke-linecap="round" transform="matrix(0.451116, 0, 0, 0.451842, 30.614303, 29.44762)" fill="none" stroke-linejoin="round" d="M 230.303108 581.502956 C 230.303108 581.502956 223.003509 592.698438 205.001295 583.197407 L 203.996843 569.901151 L 229.203405 569.901151 Z M 230.303108 581.502956 " stroke="#112544" stroke-width="1.5" stroke-opacity="1" stroke-miterlimit="10"/><g clip-path="url(#d9d15f06b2)"><path fill="#112544" d="M 148.085938 302.316406 L 148.085938 302.359375 C 148.085938 302.765625 147.769531 303.082031 147.363281 303.082031 L 121.515625 303.082031 C 121.109375 303.082031 120.792969 302.765625 120.792969 302.359375 C 120.835938 301.683594 120.835938 300.460938 120.703125 298.25 C 120.476562 294.089844 123.046875 292.960938 123.046875 292.960938 C 131.167969 297.253906 134.460938 292.195312 134.460938 292.195312 L 137.84375 295.492188 L 144.207031 297.34375 C 146.507812 297.933594 148.085938 300.011719 148.085938 302.316406 Z M 148.085938 302.316406 " fill-opacity="1" fill-rule="nonzero"/></g><path fill="#66d3d8" d="M 145.109375 245.878906 L 141.273438 283.246094 C 141.046875 285.28125 139.648438 286.90625 137.753906 287.496094 C 137.304688 287.628906 136.851562 287.675781 136.355469 287.675781 L 120.523438 287.675781 C 117.363281 287.675781 114.972656 284.695312 115.738281 281.621094 L 124.671875 243.710938 C 125.125 241.859375 124.988281 239.914062 124.3125 238.152344 C 117.273438 219.898438 114.117188 203.859375 115.0625 190.214844 L 137.347656 190.214844 L 138.613281 198.121094 L 144.925781 237.070312 C 145.421875 239.960938 145.46875 242.898438 145.109375 245.878906 Z M 145.109375 245.878906 " fill-opacity="1" fill-rule="nonzero"/><path fill="#47b6c3" d="M 136.671875 285.777344 C 137.167969 286.230469 137.527344 286.816406 137.753906 287.40625 C 137.304688 287.539062 136.851562 287.585938 136.355469 287.585938 L 120.523438 287.585938 C 117.363281 287.585938 114.972656 284.601562 115.738281 281.53125 L 124.671875 243.621094 C 125.125 241.769531 124.988281 239.824219 124.3125 238.0625 C 117.273438 219.808594 114.117188 203.769531 115.0625 190.121094 L 137.347656 190.121094 L 138.613281 198.03125 C 134.640625 200.742188 129.90625 202.414062 126.882812 206.164062 C 122.234375 211.855469 123.320312 220.351562 126.160156 227.175781 C 129.003906 233.953125 133.289062 240.277344 134.640625 247.507812 C 135.90625 254.511719 134.101562 262.054688 129.769531 267.703125 C 128.101562 269.917969 126.027344 271.859375 124.851562 274.347656 C 123.632812 276.832031 123.542969 280.175781 125.574219 282.074219 C 128.460938 284.785156 133.785156 283.023438 136.671875 285.777344 Z M 136.671875 285.777344 " fill-opacity="1" fill-rule="nonzero"/><path stroke-linecap="round" transform="matrix(0.451116, 0, 0, 0.451842, 30.614303, 29.44762)" fill="none" stroke-linejoin="round" d="M 208.499561 474.104129 L 188.69626 557.996765 C 187.102991 564.904248 192.298435 571.396763 199.303625 571.396763 L 234.398849 571.396763 C 240.00127 571.396763 244.703147 567.20386 245.300623 561.601797 L 253.803833 478.902193 C 254.600467 472.401033 254.496558 465.79613 253.500765 459.303615 L 236.702163 355.596272 L 187.30215 355.596272 C 185.102745 385.802462 192.203185 421.29949 207.798176 461.698324 C 209.200946 465.701033 209.504014 469.997678 208.499561 474.104129 Z M 208.499561 474.104129 " stroke="#112544" stroke-width="1.5" stroke-opacity="1" stroke-miterlimit="10"/><path stroke-linecap="round" transform="matrix(0.451116, 0, 0, 0.451842, 30.614303, 29.44762)" fill="none" stroke-linejoin="round" d="M 133.901644 576.203472 C 133.901644 576.203472 124.497891 585.695858 108.798991 572.702182 L 110.600078 559.397281 L 135.200505 564.497925 Z M 133.901644 576.203472 " stroke="#112544" stroke-width="1.5" stroke-opacity="1" stroke-miterlimit="10"/><g clip-path="url(#e74fa6a03a)"><path fill="#112544" d="M 102.207031 302.496094 L 102.207031 302.542969 C 102.117188 302.902344 101.753906 303.171875 101.394531 303.082031 L 76.085938 297.84375 C 75.679688 297.75 75.457031 297.34375 75.546875 296.984375 C 75.726562 296.351562 75.996094 295.132812 76.3125 292.960938 C 76.898438 288.851562 79.695312 288.261719 79.695312 288.261719 C 86.777344 294.136719 91.019531 289.84375 91.019531 289.84375 L 93.679688 293.777344 L 99.542969 296.894531 C 101.574219 297.886719 102.703125 300.191406 102.207031 302.496094 Z M 102.207031 302.496094 " fill-opacity="1" fill-rule="nonzero"/></g><path fill="#66d3d8" d="M 124.851562 190.167969 L 124.265625 194.957031 L 118.941406 237.972656 C 118.492188 241.453125 117.589844 244.886719 116.234375 248.140625 L 101.394531 282.660156 C 100.671875 284.332031 99.09375 285.460938 97.246094 285.640625 C 97.109375 285.640625 96.972656 285.640625 96.839844 285.640625 L 77.9375 285.640625 C 74.148438 285.640625 71.800781 281.53125 73.652344 278.277344 L 93.816406 243.035156 C 94.851562 241.179688 95.347656 239.058594 95.304688 236.886719 C 94.808594 222.476562 95.710938 208.152344 102.882812 190.214844 L 124.851562 190.214844 Z M 124.851562 190.167969 " fill-opacity="1" fill-rule="nonzero"/><path fill="#47b6c3" d="M 124.851562 190.167969 L 124.265625 194.957031 C 121.242188 193.601562 118.039062 193.105469 114.339844 194.144531 C 108.929688 195.589844 104.460938 200.0625 102.929688 205.484375 C 101.035156 212.308594 103.742188 219.449219 104.867188 226.449219 C 107.257812 241.316406 101.9375 257.175781 91.0625 267.570312 C 87.769531 270.730469 80.6875 275.613281 84.027344 278.730469 C 86.054688 280.625 89.664062 278.953125 92.238281 280.085938 C 94.628906 281.125 96.703125 283.15625 97.289062 285.6875 C 97.152344 285.6875 97.019531 285.6875 96.882812 285.6875 L 77.980469 285.6875 C 74.191406 285.6875 71.847656 281.574219 73.695312 278.324219 L 93.859375 243.078125 C 94.898438 241.226562 95.394531 239.101562 95.347656 236.933594 C 94.851562 222.519531 95.753906 208.195312 102.929688 190.257812 L 124.851562 190.257812 Z M 124.851562 190.167969 " fill-opacity="1" fill-rule="nonzero"/><path stroke-linecap="round" transform="matrix(0.451116, 0, 0, 0.451842, 30.614303, 29.44762)" fill="none" stroke-linejoin="round" d="M 104.902408 566.996377 L 146.803664 566.996377 C 151.202473 566.996377 155.099056 564.402829 156.796234 560.400119 L 189.700713 484.002838 C 192.696752 476.801419 194.696998 469.29742 195.701451 461.499485 L 208.802629 355.700014 L 160.104 355.700014 C 144.197283 395.39859 142.197037 427.204135 143.296739 459.001034 C 143.495898 463.704001 142.300946 468.398323 139.997632 472.599871 L 95.299496 550.596508 C 91.299004 557.901668 96.598357 566.996377 104.902408 566.996377 Z M 104.902408 566.996377 " stroke="#112544" stroke-width="1.5" stroke-opacity="1" stroke-miterlimit="10"/><path fill="#8d95ff" d="M 156.25 192.515625 L 155.890625 192.742188 C 154.175781 193.691406 151.964844 193.148438 150.925781 191.476562 L 137.574219 170.332031 L 137.484375 181.582031 L 137.394531 190.214844 L 102.882812 190.214844 C 102.386719 186.101562 101.710938 180.363281 101.484375 174.625 C 101.167969 166.402344 101.710938 158.132812 105.003906 154.472656 C 105.859375 153.523438 106.808594 152.664062 107.753906 151.988281 C 114.386719 147.105469 122.914062 147.515625 122.914062 147.515625 L 129.5 149.050781 L 130.988281 149.410156 C 134.507812 150.226562 137.800781 151.714844 140.730469 153.792969 C 142.039062 154.742188 143.980469 157.136719 146.191406 160.347656 C 150.609375 166.628906 156.023438 175.890625 159.316406 182.261719 C 161.300781 185.875 159.902344 190.484375 156.25 192.515625 Z M 156.25 192.515625 " fill-opacity="1" fill-rule="nonzero"/><path fill="#757bff" d="M 146.234375 160.257812 C 144.746094 159.082031 143.214844 157.953125 141.589844 156.914062 C 139.015625 155.285156 136.21875 153.929688 133.289062 152.9375 C 128.054688 151.175781 122.507812 150.449219 117.003906 150.902344 C 114.386719 151.128906 111.90625 151.898438 109.335938 152.214844 C 108.566406 152.304688 108.117188 152.167969 107.800781 151.898438 C 114.433594 147.015625 122.957031 147.421875 122.957031 147.421875 L 129.542969 148.960938 L 131.03125 149.320312 C 134.550781 150.132812 137.84375 151.625 140.777344 153.703125 C 142.085938 154.652344 144.023438 157.09375 146.234375 160.257812 Z M 146.234375 160.257812 " fill-opacity="1" fill-rule="nonzero"/><path stroke-linecap="round" transform="matrix(0.451116, 0, 0, 0.451842, 30.614303, 29.44762)" fill-opacity="1" fill="#ffffff" fill-rule="nonzero" stroke-linejoin="round" d="M 220.501037 264.796153 L 220.397128 265.297572 C 218.699949 271.297314 213.097529 275.498862 206.802383 275.498862 C 205.503522 275.498862 204.100752 275.300023 202.801891 274.902345 C 199.199716 273.899507 196.203677 271.496152 194.40259 268.202346 C 193.398137 266.404153 192.800661 264.398476 192.696752 262.401444 C 199.502784 261.199766 204.698228 261.199766 204.698228 261.199766 L 219.297425 264.597314 Z M 220.501037 264.796153 " stroke="#112544" stroke-width="1.5" stroke-opacity="1" stroke-miterlimit="10"/><path fill="#757bff" d="M 137.4375 181.539062 L 137.347656 190.167969 L 102.839844 190.167969 C 102.34375 186.054688 101.664062 180.316406 101.441406 174.578125 C 102.613281 173.765625 104.054688 173.3125 105.453125 173.042969 C 107.574219 172.589844 109.832031 172.273438 111.5 170.875 C 112.808594 169.789062 113.035156 169.292969 113.753906 167.757812 C 114.117188 166.941406 111.90625 164.277344 113.078125 164.457031 C 114.207031 164.640625 116.867188 168.117188 117.046875 168.929688 C 117.679688 171.777344 119.347656 172.410156 121.242188 174.667969 C 124.085938 178.105469 128.28125 180.453125 132.703125 181.039062 C 134.28125 181.265625 135.90625 181.3125 137.4375 181.539062 Z M 137.4375 181.539062 " fill-opacity="1" fill-rule="nonzero"/><path stroke-linecap="round" transform="matrix(0.451116, 0, 0, 0.451842, 30.614303, 29.44762)" fill-opacity="1" fill="#fcbba4" fill-rule="nonzero" stroke-linejoin="round" d="M 285.400791 338.003371 C 279.599212 326.902985 271.30382 312.197567 263.103677 299.497827 C 254.002991 300.198085 245.300623 304.399632 236.996571 311.79989 L 266.498034 358.596142 C 268.801348 362.296271 273.702383 363.60169 277.503716 361.397174 L 278.40426 360.895755 C 286.595743 356.400272 289.695691 346.198982 285.400791 338.003371 Z M 285.400791 338.003371 " stroke="#112544" stroke-width="1.5" stroke-opacity="1" stroke-miterlimit="10"/><path stroke-linecap="round" transform="matrix(0.451116, 0, 0, 0.451842, 30.614303, 29.44762)" fill="none" stroke-linejoin="round" d="M 278.49951 360.895755 L 277.702875 361.397174 C 273.901542 363.497948 269.000506 362.296271 266.697193 358.596142 L 237.10048 311.79989 L 236.702163 355.803756 L 160.19925 355.803756 C 157.601528 333.602984 153.800195 291.59615 164.996377 276.700539 C 171.60325 267.899766 183.596066 264.095895 192.696752 262.49654 C 199.502784 261.303508 204.698228 261.303508 204.698228 261.303508 L 219.297425 264.701056 L 220.501037 265.003637 L 222.596532 265.496411 C 230.398357 267.30325 237.697956 270.597056 244.20092 275.196281 C 252.79938 281.403506 274.403768 317.004276 285.400791 338.098467 C 289.695691 346.198982 286.595743 356.400272 278.49951 360.895755 Z M 278.49951 360.895755 " stroke="#112544" stroke-width="1.5" stroke-opacity="1" stroke-miterlimit="10"/><path fill="#efa130" d="M 183.089844 169.472656 C 183.046875 169.382812 183 169.292969 183 169.246094 C 181.601562 166.355469 178.128906 165.179688 175.289062 166.582031 L 112.175781 197.351562 C 106.039062 190.347656 95.484375 188.132812 86.328125 192.609375 C 79.199219 196.085938 74.734375 202.773438 73.921875 209.914062 C 73.515625 213.617188 74.101562 217.460938 75.816406 221.027344 C 80.867188 231.421875 93.816406 235.578125 104.640625 230.292969 C 113.304688 226.089844 118.039062 217.144531 117.046875 208.421875 C 117.046875 208.242188 117.003906 208.0625 117.003906 207.878906 L 117.136719 207.835938 L 139.289062 197.035156 L 143.257812 205.167969 C 143.753906 206.207031 145.015625 206.660156 146.101562 206.164062 L 151.917969 203.316406 C 152.957031 202.820312 153.40625 201.507812 152.910156 200.46875 L 152.054688 198.664062 L 148.988281 192.292969 L 150.792969 191.433594 L 163.46875 185.242188 L 170.597656 199.835938 C 171.09375 200.875 172.355469 201.328125 173.394531 200.832031 L 179.210938 197.984375 C 180.25 197.488281 180.699219 196.222656 180.203125 195.136719 L 179.347656 193.332031 L 173.121094 180.5 L 174.925781 179.640625 L 180.476562 176.929688 C 183.089844 175.664062 184.308594 172.320312 183.089844 169.472656 Z M 83.53125 208.152344 C 83.800781 207.878906 84.117188 207.652344 84.476562 207.472656 C 85.246094 207.113281 86.101562 207.066406 86.867188 207.339844 C 87.636719 207.609375 88.265625 208.152344 88.671875 208.917969 L 92.867188 217.59375 L 93.410156 218.679688 C 94.175781 220.261719 93.5 222.113281 91.964844 222.882812 C 90.386719 223.648438 88.539062 222.972656 87.769531 221.433594 L 83.035156 211.722656 C 82.402344 210.457031 82.671875 209.054688 83.53125 208.152344 Z M 83.53125 208.152344 " fill-opacity="1" fill-rule="nonzero"/><path fill="#ffc25e" d="M 183 169.246094 C 181.601562 166.355469 178.128906 165.179688 175.289062 166.582031 L 112.175781 197.351562 C 106.039062 190.347656 95.484375 188.132812 86.328125 192.609375 C 79.199219 196.085938 74.734375 202.773438 73.921875 209.914062 C 74.191406 212.128906 74.777344 214.339844 75.816406 216.464844 C 80.867188 226.859375 93.816406 231.015625 104.640625 225.726562 C 111.769531 222.25 116.28125 215.5625 117.046875 208.421875 C 117.09375 208.242188 117.09375 208.015625 117.09375 207.835938 C 117.230469 206.34375 117.183594 204.808594 116.957031 203.316406 L 139.242188 192.425781 L 143.214844 200.558594 C 143.710938 201.597656 144.972656 202.050781 146.054688 201.554688 L 151.875 198.707031 C 151.917969 198.707031 151.917969 198.664062 151.964844 198.664062 L 148.898438 192.292969 L 147.09375 188.585938 L 163.332031 180.632812 L 170.460938 195.230469 C 170.957031 196.269531 172.21875 196.71875 173.257812 196.222656 L 179.078125 193.375 C 179.121094 193.375 179.121094 193.332031 179.167969 193.332031 L 172.941406 180.5 L 171.136719 176.792969 L 180.292969 172.320312 C 181.601562 171.6875 182.550781 170.648438 183.089844 169.382812 C 183.046875 169.429688 183 169.339844 183 169.246094 Z M 92.824219 222.113281 C 92.550781 222.382812 92.28125 222.609375 91.921875 222.789062 C 90.34375 223.558594 88.492188 222.882812 87.726562 221.34375 L 83.53125 212.667969 L 82.988281 211.585938 C 82.222656 210.050781 82.855469 208.152344 84.433594 207.382812 C 85.199219 207.023438 86.054688 206.976562 86.824219 207.246094 C 87.589844 207.519531 88.222656 208.0625 88.628906 208.828125 L 93.363281 218.542969 C 93.949219 219.808594 93.679688 221.210938 92.824219 222.113281 Z M 92.824219 222.113281 " fill-opacity="1" fill-rule="nonzero"/><path stroke-linecap="round" transform="matrix(0.451116, 0, 0, 0.451842, 30.614303, 29.44762)" fill="none" stroke-linejoin="round" d="M 331.302539 366.800399 L 315.49973 334.502081 L 331.796106 326.600404 C 338.099911 323.496792 340.801542 315.802599 337.701594 309.500277 C 334.601646 303.102858 326.903729 300.500665 320.599924 303.604278 L 180.703936 371.702205 C 167.100532 356.201433 143.703715 351.299627 123.398189 361.198336 C 99.403896 372.800141 88.99569 401.000654 100.200531 423.99678 C 111.396713 447.001552 140.101541 456.200002 164.095833 444.5031 C 183.699975 435.002069 194.203431 414.599491 191.5018 394.89717 L 240.901813 370.803109 L 249.699432 388.802332 C 250.799134 391.101945 253.596015 392.096139 256.003237 390.998203 L 268.896597 384.695881 C 271.199911 383.597946 272.195704 380.701817 271.096002 378.402205 L 262.298384 360.402981 L 294.302318 344.798467 L 310.096468 377.096785 C 311.196171 379.396398 314.00171 380.399237 316.296365 379.301301 L 329.198384 372.998979 C 331.501697 371.996141 332.497491 369.203754 331.302539 366.800399 Z M 135.90189 427.999489 C 132.403625 429.702586 128.299224 428.198328 126.602046 424.80078 L 116.09859 403.300266 C 114.401411 399.902718 115.899431 395.70117 119.302447 393.998074 C 120.999625 393.202719 122.895962 393.098977 124.6018 393.704138 C 126.298978 394.300654 127.701748 395.502332 128.602292 397.196783 L 139.097088 418.697297 C 140.802926 422.10349 139.296247 426.296393 135.90189 427.999489 Z M 135.90189 427.999489 " stroke="#112544" stroke-width="1.5" stroke-opacity="1" stroke-miterlimit="10"/><path fill="#fc6054" d="M 134.507812 135.902344 C 132.386719 136.488281 130.222656 135.269531 129.632812 133.144531 C 129.5 132.648438 129.453125 132.105469 129.5 131.609375 C 129.136719 131.5625 128.824219 131.519531 128.460938 131.429688 C 127.828125 133.371094 126.386719 134.996094 124.445312 135.722656 C 124.628906 137.617188 123.453125 139.425781 121.558594 139.96875 C 119.4375 140.554688 117.273438 139.335938 116.6875 137.210938 C 116.371094 136.128906 116.550781 135.042969 117.09375 134.140625 C 116.328125 133.328125 115.738281 132.332031 115.425781 131.203125 C 114.433594 127.542969 116.550781 123.792969 120.160156 122.796875 C 122.054688 122.257812 123.949219 122.574219 125.484375 123.519531 C 126.160156 122.4375 127.242188 121.578125 128.597656 121.171875 C 131.4375 120.402344 134.371094 122.03125 135.136719 124.875 C 135.453125 126.097656 135.363281 127.316406 134.914062 128.402344 C 136.039062 128.851562 136.898438 129.800781 137.257812 131.023438 C 137.84375 133.144531 136.625 135.3125 134.507812 135.902344 Z M 134.507812 135.902344 " fill-opacity="1" fill-rule="nonzero"/><path fill="#e64b38" d="M 126.070312 129.847656 C 126.070312 129.847656 126.027344 132.0625 128.507812 133.371094 L 129.183594 131.429688 C 127.875 131.339844 126.925781 130.707031 126.070312 129.847656 Z M 126.070312 129.847656 " fill-opacity="1" fill-rule="nonzero"/><path fill="#e64b38" d="M 135.09375 124.652344 C 133.785156 123.113281 131.664062 122.390625 129.589844 122.980469 C 128.234375 123.339844 127.152344 124.199219 126.476562 125.328125 C 124.941406 124.378906 123.003906 124.0625 121.152344 124.605469 C 117.5 125.601562 115.378906 129.351562 116.417969 133.011719 C 116.460938 133.191406 116.507812 133.371094 116.597656 133.550781 C 116.054688 132.875 115.648438 132.0625 115.425781 131.203125 C 114.433594 127.542969 116.550781 123.792969 120.160156 122.796875 C 122.054688 122.257812 123.949219 122.574219 125.484375 123.519531 C 126.160156 122.4375 127.242188 121.578125 128.597656 121.171875 C 131.347656 120.402344 134.191406 121.941406 135.09375 124.652344 Z M 135.09375 124.652344 " fill-opacity="1" fill-rule="nonzero"/><path stroke-linecap="round" transform="matrix(0.451116, 0, 0, 0.451842, 30.614303, 29.44762)" fill="none" stroke-linejoin="round" d="M 230.303108 235.601447 C 225.601231 236.898221 220.804104 234.200931 219.496584 229.497964 C 219.202176 228.400028 219.098267 227.198351 219.202176 226.100416 C 218.396882 225.996674 217.704156 225.901577 216.898862 225.702738 C 215.496092 229.999383 212.300894 233.59577 207.997335 235.203769 C 208.404311 239.396672 205.79793 243.399381 201.59828 244.601059 C 196.896403 245.897833 192.099276 243.200543 190.800415 238.497575 C 190.09903 236.102866 190.497348 233.699511 191.700959 231.702479 C 190.00378 229.904286 188.69626 227.69977 188.003535 225.201319 C 185.80413 217.100804 190.497348 208.80145 198.498331 206.596934 C 202.697982 205.403902 206.897632 206.10416 210.300648 208.196289 C 211.798668 205.801579 214.197231 203.899644 217.20193 203.000547 C 223.497076 201.297451 230.00004 204.902482 231.697218 211.196159 C 232.398603 213.902094 232.199445 216.599384 231.203651 219.002739 C 233.697464 219.996932 235.60246 222.097706 236.399095 224.803642 C 237.697956 229.497964 234.996325 234.296028 230.303108 235.601447 Z M 230.303108 235.601447 " stroke="#112544" stroke-width="1.5" stroke-opacity="1" stroke-miterlimit="10"/><path fill="#fcbba4" d="M 137.304688 136.488281 C 136.941406 137.03125 136.355469 137.347656 135.722656 137.300781 C 136.445312 141.050781 134.191406 144.757812 130.445312 145.796875 C 129.816406 145.976562 129.183594 146.066406 128.550781 146.066406 L 128.507812 146.066406 L 128.28125 146.792969 L 127.921875 148.054688 L 127.738281 148.597656 C 127.109375 150.722656 124.898438 151.988281 122.730469 151.355469 C 121.648438 151.039062 120.835938 150.316406 120.296875 149.410156 C 119.800781 148.507812 119.664062 147.421875 119.980469 146.339844 L 120.929688 142.996094 L 121.152344 142.273438 L 121.46875 141.234375 C 120.972656 141.550781 120.339844 141.59375 119.800781 141.324219 C 118.941406 140.871094 118.582031 139.832031 118.988281 138.929688 C 119.304688 138.296875 119.933594 137.933594 120.613281 137.933594 L 120.429688 137.300781 C 120.296875 136.851562 120.207031 136.355469 120.207031 135.902344 C 121.332031 136.21875 122.597656 136.21875 123.816406 135.902344 C 126.117188 135.269531 127.828125 133.507812 128.507812 131.382812 C 129.453125 131.65625 130.445312 131.699219 131.4375 131.429688 C 132.070312 131.246094 132.65625 130.976562 133.199219 130.570312 C 133.695312 131.15625 134.144531 131.878906 134.417969 132.648438 C 134.507812 132.875 134.597656 133.144531 134.6875 133.417969 L 134.820312 134.09375 C 135.410156 133.734375 136.175781 133.6875 136.761719 134.09375 C 137.574219 134.589844 137.800781 135.675781 137.304688 136.488281 Z M 137.304688 136.488281 " fill-opacity="1" fill-rule="nonzero"/><path fill="#f2a07c" d="M 128.550781 146.066406 L 128.324219 146.792969 L 127.964844 148.054688 C 126.207031 147.605469 125.394531 145.34375 125.394531 145.34375 C 126.613281 145.75 127.695312 146.023438 128.550781 146.066406 Z M 128.550781 146.066406 " fill-opacity="1" fill-rule="nonzero"/><path fill="#f2a07c" d="M 134.417969 132.648438 C 134.054688 133.234375 133.46875 133.6875 132.925781 134.050781 C 131.710938 134.726562 130.265625 134.953125 128.867188 135.089844 C 127.46875 135.222656 126.070312 135.3125 124.761719 135.855469 C 123.949219 136.171875 123.09375 136.804688 123.003906 137.710938 C 122.957031 138.160156 123.136719 138.613281 123.226562 139.109375 C 123.5 140.285156 123.09375 141.640625 122.191406 142.453125 C 121.828125 142.769531 121.425781 142.996094 120.972656 143.085938 L 121.199219 142.363281 L 121.515625 141.324219 C 121.019531 141.640625 120.386719 141.683594 119.84375 141.414062 C 118.988281 140.960938 118.628906 139.921875 119.03125 139.019531 C 119.347656 138.386719 119.980469 138.023438 120.65625 138.023438 L 120.476562 137.394531 C 120.339844 136.941406 120.25 136.445312 120.25 135.992188 C 121.378906 136.308594 122.640625 136.308594 123.859375 135.992188 C 126.160156 135.359375 127.875 133.597656 128.550781 131.472656 C 129.5 131.746094 130.492188 131.789062 131.484375 131.519531 C 132.117188 131.339844 132.703125 131.066406 133.242188 130.660156 C 133.695312 131.203125 134.101562 131.878906 134.417969 132.648438 Z M 134.417969 132.648438 " fill-opacity="1" fill-rule="nonzero"/><path stroke-linecap="round" transform="matrix(0.451116, 0, 0, 0.451842, 30.614303, 29.44762)" fill="none" stroke-linejoin="round" d="M 236.503004 236.898221 C 235.69771 238.099898 234.398849 238.800156 232.996079 238.696414 C 234.598008 246.995768 229.601723 255.200025 221.297671 257.499638 C 219.903561 257.897315 218.500791 258.096154 217.098021 258.096154 L 216.595795 259.704154 L 215.400842 263.80196 C 213.998073 268.496282 209.097037 271.297314 204.29991 269.896798 C 201.901347 269.19654 200.10026 267.597185 198.896649 265.600153 C 197.796946 263.603121 197.502538 261.199766 198.203923 258.796412 L 200.801645 249.7968 L 201.50303 247.497187 C 200.403327 248.197445 199.000558 248.301187 197.796946 247.696026 C 195.900609 246.701833 195.103975 244.40222 195.995859 242.396543 C 196.697244 240.996027 198.100014 240.200672 199.598034 240.200672 L 199.199716 238.800156 C 198.896649 237.797317 198.69749 236.699382 198.69749 235.696543 C 201.199962 236.396801 203.996843 236.396801 206.698474 235.696543 C 211.798668 234.296028 215.600001 230.39706 217.098021 225.702738 C 219.202176 226.299254 221.40158 226.402996 223.600985 225.797835 C 225.003755 225.400158 226.302616 224.803642 227.497568 223.8959 C 229.004247 225.702738 230.103949 227.69977 230.796675 230.103125 L 231.099742 231.598738 C 232.398603 230.803383 234.095782 230.699641 235.403302 231.598738 C 237.10048 232.696673 237.602706 235.100027 236.503004 236.898221 Z M 236.503004 236.898221 " stroke="#112544" stroke-width="1.5" stroke-opacity="1" stroke-miterlimit="10"/><path stroke-linecap="round" transform="matrix(0.451116, 0, 0, 0.451842, 30.614303, 29.44762)" fill="none" stroke-linejoin="round" d="M 236.503004 236.898221 C 235.69771 238.099898 234.398849 238.800156 232.996079 238.696414 C 234.598008 246.995768 229.601723 255.200025 221.297671 257.499638 C 219.903561 257.897315 218.500791 258.096154 217.098021 258.096154 L 216.595795 259.704154 L 215.400842 263.80196 C 213.998073 268.496282 209.097037 271.297314 204.29991 269.896798 C 201.901347 269.19654 200.10026 267.597185 198.896649 265.600153 C 197.796946 263.603121 197.502538 261.199766 198.203923 258.796412 L 200.801645 249.7968 L 201.50303 247.497187 C 200.403327 248.197445 199.000558 248.301187 197.796946 247.696026 C 195.900609 246.701833 195.103975 244.40222 195.995859 242.396543 C 196.697244 240.996027 198.100014 240.200672 199.598034 240.200672 L 199.199716 238.800156 C 198.896649 237.797317 198.69749 236.699382 198.69749 235.696543 C 201.199962 236.396801 203.996843 236.396801 206.698474 235.696543 C 211.798668 234.296028 215.600001 230.39706 217.098021 225.702738 C 219.202176 226.299254 221.40158 226.402996 223.600985 225.797835 C 225.003755 225.400158 226.302616 224.803642 227.497568 223.8959 C 229.004247 225.702738 230.103949 227.69977 230.796675 230.103125 L 231.099742 231.598738 C 232.398603 230.803383 234.095782 230.699641 235.403302 231.598738 C 237.10048 232.696673 237.602706 235.100027 236.503004 236.898221 Z M 236.503004 236.898221 " stroke="#112544" stroke-width="1.5" stroke-opacity="1" stroke-miterlimit="10"/><path stroke-linecap="round" transform="matrix(0.451116, 0, 0, 0.451842, 30.614303, 29.44762)" fill="none" stroke-linejoin="round" d="M 217.098021 258.096154 C 214.197231 258.096154 211.400351 257.395896 208.897878 256.004025 " stroke="#112544" stroke-width="1.5" stroke-opacity="1" stroke-miterlimit="10"/><path stroke-linecap="round" transform="matrix(0.451116, 0, 0, 0.451842, 30.614303, 29.44762)" fill="none" stroke-linejoin="round" d="M 217.002771 225.702738 C 214.30114 224.898738 211.902577 223.100545 210.395898 220.69719 " stroke="#112544" stroke-width="1.5" stroke-opacity="1" stroke-miterlimit="10"/><path fill="#112544" d="M 132.792969 135.992188 C 132.882812 136.308594 132.703125 136.578125 132.386719 136.667969 C 132.070312 136.761719 131.753906 136.578125 131.710938 136.308594 C 131.621094 135.992188 131.800781 135.675781 132.117188 135.628906 C 132.429688 135.585938 132.703125 135.675781 132.792969 135.992188 Z M 132.792969 135.992188 " fill-opacity="1" fill-rule="nonzero"/><path fill="#112544" d="M 132.792969 133.867188 C 132.882812 134.140625 132.160156 134.5 131.484375 134.683594 C 130.808594 134.863281 129.859375 135.042969 129.816406 134.773438 C 129.722656 134.5 130.582031 133.957031 131.214844 133.777344 C 131.890625 133.597656 132.703125 133.640625 132.792969 133.867188 Z M 132.792969 133.867188 " fill-opacity="1" fill-rule="nonzero"/><path fill="#112544" d="M 127.199219 135.585938 C 127.289062 135.855469 126.566406 136.21875 125.890625 136.398438 C 125.214844 136.578125 124.265625 136.761719 124.222656 136.488281 C 124.128906 136.21875 124.988281 135.675781 125.621094 135.496094 C 126.25 135.3125 127.109375 135.3125 127.199219 135.585938 Z M 127.199219 135.585938 " fill-opacity="1" fill-rule="nonzero"/><path fill="#112544" d="M 126.792969 137.84375 C 126.882812 138.160156 126.703125 138.433594 126.386719 138.523438 C 126.070312 138.613281 125.753906 138.433594 125.710938 138.160156 C 125.621094 137.84375 125.800781 137.527344 126.117188 137.484375 C 126.386719 137.394531 126.746094 137.574219 126.792969 137.84375 Z M 126.792969 137.84375 " fill-opacity="1" fill-rule="nonzero"/><path stroke-linecap="round" transform="matrix(0.451116, 0, 0, 0.451842, 30.614303, 29.44762)" fill="none" stroke-linejoin="round" d="M 218.500791 237.001963 C 218.500791 237.001963 223.202668 242.500285 221.600739 242.396543 C 221.098513 242.396543 219.600493 242.604027 219.600493 242.604027 " stroke="#112544" stroke-width="1.5" stroke-opacity="1" stroke-miterlimit="10"/><path stroke-linecap="round" transform="matrix(0.451116, 0, 0, 0.451842, 30.614303, 29.44762)" fill="none" stroke-linejoin="round" d="M 233.203897 234.797447 L 234.000532 234.598608 " stroke="#112544" stroke-width="1.5" stroke-opacity="1" stroke-miterlimit="10"/><path stroke-linecap="round" transform="matrix(0.451116, 0, 0, 0.451842, 30.614303, 29.44762)" fill="none" stroke-linejoin="round" d="M 198.100014 244.497317 L 198.896649 244.298478 " stroke="#112544" stroke-width="1.5" stroke-opacity="1" stroke-miterlimit="10"/><path fill="#112544" d="M 128.191406 140.78125 C 128.191406 140.871094 128.417969 142.453125 129.273438 143.355469 C 129.542969 143.671875 129.949219 143.898438 130.402344 143.988281 C 130.445312 143.988281 130.492188 143.988281 130.535156 143.988281 C 131.121094 143.988281 131.574219 143.582031 131.933594 143.085938 C 132.613281 142.09375 132.882812 140.691406 132.882812 140.554688 C 132.882812 140.511719 132.882812 140.464844 132.835938 140.464844 C 132.792969 140.464844 132.746094 140.464844 132.746094 140.464844 C 132.746094 140.464844 132.523438 140.601562 132.117188 140.738281 C 131.484375 140.960938 130.355469 141.144531 129.003906 140.871094 C 128.777344 140.828125 128.550781 140.78125 128.371094 140.691406 C 128.324219 140.691406 128.28125 140.691406 128.28125 140.691406 C 128.191406 140.738281 128.191406 140.738281 128.191406 140.78125 Z M 128.191406 140.78125 " fill-opacity="1" fill-rule="nonzero"/><path fill="#fc6054" d="M 129.632812 143.132812 C 129.859375 143.355469 130.128906 143.539062 130.445312 143.582031 C 130.492188 143.582031 130.535156 143.582031 130.535156 143.582031 C 130.988281 143.582031 131.304688 143.3125 131.574219 142.90625 C 131.347656 142.679688 131.078125 142.5 130.761719 142.453125 C 130.71875 142.453125 130.671875 142.453125 130.671875 142.453125 C 130.222656 142.453125 129.859375 142.722656 129.632812 143.132812 Z M 129.632812 143.132812 " fill-opacity="1" fill-rule="nonzero"/><path fill="#ffffff" d="M 129.003906 140.828125 C 129.226562 141.460938 129.816406 141.867188 130.535156 141.867188 C 131.257812 141.867188 131.890625 141.367188 132.117188 140.691406 C 131.4375 140.917969 130.355469 141.144531 129.003906 140.828125 Z M 129.003906 140.828125 " fill-opacity="1" fill-rule="nonzero"/><path stroke-linecap="round" transform="matrix(0.451116, 0, 0, 0.451842, 30.614303, 29.44762)" fill="none" stroke-linejoin="round" d="M 237.10048 311.696148 L 237.10048 303.898213 " stroke="#112544" stroke-width="1.5" stroke-opacity="1" stroke-miterlimit="10"/><path fill="#fcbba4" d="M 146.324219 187.503906 C 147.5 188.179688 148.402344 188.8125 148.582031 189.535156 C 148.851562 190.621094 146.957031 189.488281 145.46875 188.992188 C 146.414062 189.582031 147.046875 190.03125 147.226562 190.621094 C 147.542969 191.75 145.558594 190.664062 144.023438 190.121094 C 144.792969 190.621094 145.511719 190.621094 145.648438 191.160156 C 146.011719 192.472656 141.90625 191.433594 140.101562 190.9375 C 139.558594 190.800781 139.242188 190.664062 139.242188 190.664062 L 123.136719 188.902344 C 121.378906 188.722656 119.664062 188.40625 117.949219 187.910156 C 114.523438 186.914062 111.363281 185.332031 108.746094 183.074219 C 106.222656 180.90625 104.238281 178.148438 103.0625 174.761719 C 103.019531 174.667969 102.972656 174.535156 102.972656 174.445312 C 101.980469 171.324219 101.621094 168.074219 102.027344 164.820312 C 102.070312 164.324219 102.160156 163.914062 102.25 163.554688 L 112.671875 162.152344 L 113.621094 166.625 C 115.019531 173.3125 120.070312 178.601562 126.65625 180.273438 L 140.324219 183.75 C 140.324219 183.75 143.257812 181.3125 144.207031 182.214844 C 144.835938 182.847656 143.214844 184.65625 143.214844 184.65625 C 143.214844 184.65625 148.492188 186.101562 148.941406 187.820312 C 149.121094 188.765625 147.679688 187.910156 146.324219 187.503906 Z M 146.324219 187.503906 " fill-opacity="1" fill-rule="nonzero"/><path fill="#f2a07c" d="M 140.191406 190.621094 C 140.191406 190.753906 140.144531 190.847656 140.054688 190.9375 C 139.515625 190.800781 139.199219 190.664062 139.199219 190.664062 L 123.09375 188.902344 C 121.332031 188.722656 119.621094 188.40625 117.90625 187.910156 C 114.476562 186.914062 111.320312 185.332031 108.703125 183.074219 C 106.175781 180.90625 104.191406 178.148438 103.019531 174.761719 C 103.152344 173.765625 103.648438 172.90625 104.777344 172.726562 C 106.222656 172.5 106.402344 174.398438 106.628906 175.394531 C 107.347656 178.375 109.0625 181.132812 111.453125 183.074219 C 112.808594 184.160156 114.339844 185.015625 116.011719 185.515625 C 119.621094 186.554688 123.453125 186.054688 127.199219 186.28125 C 131.394531 186.507812 135.5 187.636719 139.242188 189.535156 C 139.785156 189.714844 140.28125 190.121094 140.191406 190.621094 Z M 140.191406 190.621094 " fill-opacity="1" fill-rule="nonzero"/><path stroke-linecap="round" transform="matrix(0.451116, 0, 0, 0.451842, 30.614303, 29.44762)" fill="none" stroke-linejoin="round" d="M 181.803638 293.696924 L 183.899134 303.604278 C 186.999082 318.396147 198.203923 330.101694 212.80312 333.801823 L 243.101218 341.496015 C 243.101218 341.496015 249.604182 336.101435 251.699678 338.098467 C 253.102448 339.498983 249.500273 343.501692 249.500273 343.501692 C 249.500273 343.501692 261.198681 346.700402 262.203134 350.504272 C 262.80061 352.596401 259.596753 350.703111 256.600713 349.804014 C 259.198435 351.299627 261.198681 352.700143 261.596999 354.299498 C 262.203134 356.702852 258.003483 354.195756 254.695717 353.09782 C 256.799872 354.40324 258.202642 355.397433 258.600959 356.702852 C 259.302344 359.201304 254.903535 356.797949 251.500519 355.596272 C 253.197697 356.702852 254.799626 356.702852 255.102694 357.895884 C 256.098487 361.699755 240.901813 356.797949 240.901813 356.797949 L 205.200454 352.898982 C 201.303871 352.501304 197.502538 351.801046 193.701205 350.703111 C 186.098538 348.498595 179.102007 344.997305 173.300428 340.000403 C 167.498849 335.098597 163.10004 328.796275 160.502318 320.903243 C 158.302913 313.99576 157.497619 306.802987 158.398163 299.601568 C 158.502072 298.503633 158.70123 297.595891 158.900389 296.800537 " stroke="#112544" stroke-width="1.5" stroke-opacity="1" stroke-miterlimit="10"/><path stroke-linecap="round" transform="matrix(0.451116, 0, 0, 0.451842, 30.614303, 29.44762)" fill-opacity="1" fill="#8d95ff" fill-rule="nonzero" stroke-linejoin="round" d="M 158.79648 296.800537 C 158.597322 297.595891 158.502072 298.503633 158.302913 299.601568 C 157.402369 306.802987 158.199004 313.99576 160.398409 320.903243 C 160.900635 322.597695 161.60202 324.19705 162.303405 325.701307 C 171.897658 318.698728 183.301658 318.102212 197.104221 325.701307 C 190.497348 320.099244 185.80413 312.396406 184.003043 303.595633 L 181.898888 293.696924 " stroke="#112544" stroke-width="1.5" stroke-opacity="1" stroke-miterlimit="10"/><path stroke-linecap="round" transform="matrix(0.451116, 0, 0, 0.451842, 30.614303, 29.44762)" fill-opacity="1" fill="#fcbba4" fill-rule="nonzero" stroke-linejoin="round" d="M 285.201632 355.103498 C 282.60391 357.601949 275.399561 360.800658 272.697931 358.596142 C 271.30382 357.498207 266.801102 350.09795 269.398824 349.501434 C 270.602435 349.302595 271.702137 351.100788 272.897089 352.596401 C 271.502978 349.501434 269.398824 346.700402 270.896843 345.801305 C 271.996546 345.196144 273.598474 347.495757 275.001244 349.302595 C 273.598474 346.302724 271.598228 343.302854 272.801839 343.000273 C 274.299859 342.602596 276.196196 344.902208 277.798125 347.201821 C 276.698422 344.495886 275.096494 342.101177 276.404014 341.496015 C 279.001736 340.302983 283.097478 350.798208 283.097478 350.798208 C 283.097478 350.798208 286.500493 347.002982 287.903263 348.196015 C 289.998759 350.002853 286.803561 353.59924 285.201632 355.103498 Z M 285.201632 355.103498 " stroke="#112544" stroke-width="1.5" stroke-opacity="1" stroke-miterlimit="10"/><g clip-path="url(#635d213958)"><path fill="#8d95ff" d="M 187.917969 303.128906 L 259.375 303.128906 C 262.171875 298.566406 270.519531 284.0625 266.730469 279.632812 C 262.21875 274.347656 250.128906 287.992188 250.128906 287.992188 C 250.128906 287.992188 259.464844 268.96875 252.789062 265.265625 C 244.941406 260.972656 234.292969 273.941406 234.292969 273.941406 C 234.292969 273.941406 237.949219 244.207031 226.488281 244.433594 C 215.617188 244.613281 213.765625 276.558594 213.765625 276.558594 C 213.765625 276.558594 198.972656 236.886719 188.867188 240.820312 C 177.902344 245.113281 195.226562 287.628906 195.226562 287.628906 C 195.226562 287.628906 180.789062 266.753906 173.257812 272.945312 C 164.191406 280.402344 183.769531 299.289062 187.917969 303.128906 Z M 187.917969 303.128906 " fill-opacity="1" fill-rule="nonzero"/></g><path fill="#757bff" d="M 239.074219 269.195312 C 239.03125 274.210938 238.535156 278.140625 238.535156 278.140625 C 238.535156 278.140625 247.511719 267.160156 255.042969 268.742188 C 254.773438 267.160156 254.050781 265.941406 252.789062 265.265625 C 248.277344 262.824219 242.863281 266.03125 239.074219 269.195312 Z M 239.074219 269.195312 " fill-opacity="1" fill-rule="nonzero"/><path fill="#757bff" d="M 214.21875 271.636719 C 216.519531 276.875 217.964844 280.761719 217.964844 280.761719 C 217.964844 280.761719 219.8125 248.816406 230.683594 248.636719 C 231.359375 248.636719 231.949219 248.726562 232.535156 248.90625 C 231.269531 246.195312 229.332031 244.390625 226.488281 244.433594 C 218.324219 244.570312 215.257812 262.6875 214.21875 271.636719 Z M 214.21875 271.636719 " fill-opacity="1" fill-rule="nonzero"/><path fill="#757bff" d="M 194.371094 285.507812 C 197.210938 288.761719 199.242188 291.605469 199.421875 291.878906 C 199.015625 290.882812 182.234375 249.3125 193.0625 245.066406 C 194.683594 244.433594 196.398438 244.929688 198.203125 246.152344 C 195 242.128906 191.753906 239.691406 188.867188 240.820312 C 179.390625 244.523438 191.03125 276.785156 194.371094 285.507812 Z M 194.371094 285.507812 " fill-opacity="1" fill-rule="nonzero"/><path fill="#757bff" d="M 186.972656 302.179688 C 180.113281 294.90625 170.597656 282.796875 177.453125 277.148438 C 180.789062 274.4375 185.484375 276.96875 189.679688 280.671875 C 184.804688 275.25 177.769531 269.242188 173.257812 272.945312 C 164.777344 279.902344 181.378906 296.9375 186.972656 302.179688 Z M 186.972656 302.179688 " fill-opacity="1" fill-rule="nonzero"/><g clip-path="url(#975be8620e)"><path stroke-linecap="round" transform="matrix(0.451116, 0, 0, 0.451842, 30.614303, 29.44762)" fill="none" stroke-linejoin="round" d="M 348.698617 605.700759 L 507.099045 605.700759 C 513.298942 595.603212 531.803381 563.503732 523.40408 553.70012 C 513.40285 542.003218 486.603019 572.200763 486.603019 572.200763 C 486.603019 572.200763 507.298204 530.098832 492.499847 521.90322 C 475.103769 512.402189 451.499135 541.104122 451.499135 541.104122 C 451.499135 541.104122 459.604028 475.297161 434.198307 475.798581 C 410.100106 476.196258 405.995705 546.896379 405.995705 546.896379 C 405.995705 546.896379 373.203794 459.096131 350.802772 467.801807 C 326.496753 477.302838 364.899743 571.396763 364.899743 571.396763 C 364.899743 571.396763 332.895808 525.197027 316.201115 538.899606 C 296.103406 555.403217 339.502681 597.202567 348.698617 605.700759 Z M 348.698617 605.700759 " stroke="#112544" stroke-width="1.5" stroke-opacity="1" stroke-miterlimit="10"/></g><g clip-path="url(#445ff4a9f8)"><path fill="#b9c3fc" d="M 202.488281 303.128906 L 240.835938 303.128906 C 242.324219 300.6875 246.835938 292.917969 244.804688 290.523438 C 242.367188 287.675781 235.871094 295.039062 235.871094 295.039062 C 235.871094 295.039062 240.878906 284.828125 237.269531 282.839844 C 233.03125 280.535156 227.347656 287.496094 227.347656 287.496094 C 227.347656 287.496094 229.285156 271.542969 223.152344 271.636719 C 217.332031 271.726562 216.339844 288.894531 216.339844 288.894531 C 216.339844 288.894531 208.398438 267.613281 202.984375 269.738281 C 197.078125 272.042969 206.414062 294.859375 206.414062 294.859375 C 206.414062 294.859375 198.65625 283.652344 194.59375 286.996094 C 189.722656 290.929688 200.234375 301.050781 202.488281 303.128906 Z M 202.488281 303.128906 " fill-opacity="1" fill-rule="nonzero"/></g><path fill="#e1e5ff" d="M 227.347656 293.007812 C 227.347656 293.007812 233.03125 286.050781 237.269531 288.351562 C 237.585938 288.535156 237.855469 288.804688 238.082031 289.121094 C 238.757812 286.5 238.984375 283.789062 237.269531 282.839844 C 233.617188 280.851562 228.878906 285.777344 227.660156 287.132812 C 227.707031 290.296875 227.347656 293.007812 227.347656 293.007812 Z M 227.347656 293.007812 " fill-opacity="1" fill-rule="nonzero"/><path fill="#e1e5ff" d="M 216.339844 294.363281 C 216.339844 294.363281 217.332031 277.238281 223.152344 277.101562 C 226.21875 277.058594 227.257812 280.988281 227.570312 284.964844 C 227.84375 280.492188 227.796875 271.5 223.152344 271.589844 C 217.332031 271.679688 216.339844 288.851562 216.339844 288.851562 C 216.339844 288.851562 208.398438 267.523438 202.984375 269.691406 C 201 270.460938 200.730469 273.625 201.273438 277.464844 C 201.542969 276.378906 202.082031 275.566406 202.984375 275.203125 C 208.398438 273.082031 216.339844 294.363281 216.339844 294.363281 Z M 216.339844 294.363281 " fill-opacity="1" fill-rule="nonzero"/><path fill="#e1e5ff" d="M 194.144531 292.871094 C 194.28125 292.734375 194.414062 292.601562 194.550781 292.464844 C 198.519531 289.210938 206.054688 299.921875 206.324219 300.328125 C 206.234375 300.101562 204.472656 295.71875 202.984375 290.703125 C 200.371094 287.902344 196.851562 285.007812 194.503906 286.953125 C 192.835938 288.351562 193.0625 290.523438 194.144531 292.871094 Z M 194.144531 292.871094 " fill-opacity="1" fill-rule="nonzero"/><g clip-path="url(#67f52b0ccb)"><path stroke-linecap="round" transform="matrix(0.451116, 0, 0, 0.451842, 30.614303, 29.44762)" fill="none" stroke-linejoin="round" d="M 380.99696 605.700759 L 466.003083 605.700759 C 469.30219 600.297534 479.30342 583.10231 474.800702 577.802827 C 469.39744 571.500505 454.997401 587.796632 454.997401 587.796632 C 454.997401 587.796632 466.098333 565.198183 458.097349 560.797797 C 448.702255 555.697152 436.103303 571.102828 436.103303 571.102828 C 436.103303 571.102828 440.398203 535.795993 426.803458 536.003477 C 413.901439 536.202316 411.702034 574.197795 411.702034 574.197795 C 411.702034 574.197795 394.098138 527.098962 382.096663 531.801929 C 369.004144 536.902574 389.699329 587.398955 389.699329 587.398955 C 389.699329 587.398955 372.50241 562.59599 363.496973 569.996247 C 352.699109 578.701924 376.000675 601.101534 380.99696 605.700759 Z M 380.99696 605.700759 " stroke="#112544" stroke-width="1.5" stroke-opacity="1" stroke-miterlimit="10"/></g><g clip-path="url(#8a264dddf4)"><path stroke-linecap="round" transform="matrix(0.451116, 0, 0, 0.451842, 30.614303, 29.44762)" fill="none" stroke-linejoin="round" d="M 317.803043 605.700759 L 300.398306 605.700759 " stroke="#112544" stroke-width="1.5" stroke-opacity="1" stroke-miterlimit="10"/></g><g clip-path="url(#87b7cf9e5a)"><path stroke-linecap="round" transform="matrix(0.451116, 0, 0, 0.451842, 30.614303, 29.44762)" fill="none" stroke-linejoin="round" d="M 348.698617 605.700759 L 329.302293 605.700759 " stroke="#112544" stroke-width="1.5" stroke-opacity="1" stroke-miterlimit="10"/></g><g clip-path="url(#e0de89a867)"><path stroke-linecap="round" transform="matrix(0.451116, 0, 0, 0.451842, 30.614303, 29.44762)" fill="none" stroke-linejoin="round" d="M 507.202954 605.700759 L 538.003278 605.700759 " stroke="#112544" stroke-width="1.5" stroke-opacity="1" stroke-miterlimit="10"/></g><g clip-path="url(#c8f5341697)"><path stroke-linecap="round" transform="matrix(0.451116, 0, 0, 0.451842, 30.614303, 29.44762)" fill="none" stroke-linejoin="round" d="M 550.100003 605.700759 L 562.603705 605.700759 " stroke="#112544" stroke-width="1.5" stroke-opacity="1" stroke-miterlimit="10"/></g></svg>