<svg xmlns="http://www.w3.org/2000/svg" xmlns:xlink="http://www.w3.org/1999/xlink" width="200" zoomAndPan="magnify" viewBox="0 0 150 149.999998" height="200" preserveAspectRatio="xMidYMid meet" version="1.0"><path fill="#ff7bac" d="M 76.902344 98.078125 C 71.480469 94.230469 66.402344 90.378906 62.019531 85.320312 C 57.75 80.378906 54.460938 74.574219 52.617188 68.367188 C 51.867188 65.898438 51.171875 63.140625 51.578125 60.496094 C 52.269531 56.472656 55.558594 57.679688 57.921875 59.804688 C 63.117188 64.632812 66.867188 71.585938 69.808594 77.964844 C 71.132812 80.839844 75.921875 78.828125 74.941406 75.78125 C 75.058594 76.183594 74.882812 76.125 75 75.609375 C 75.117188 75.148438 75.347656 74.746094 75.519531 74.289062 C 76.097656 73.023438 76.902344 71.816406 77.652344 70.609375 C 79.152344 68.253906 80.710938 66.011719 82.441406 63.828125 C 85.269531 60.152344 93.75 53.253906 97.441406 59.804688 C 99.460938 63.367188 96.808594 68.484375 95.078125 71.644531 C 92.308594 76.816406 88.617188 81.644531 84.921875 86.183594 C 81.75 90.035156 78.519531 93.882812 74.882812 97.273438 C 73.039062 99 75.808594 101.757812 77.652344 100.03125 C 86.828125 91.757812 96.460938 82.503906 101.480469 71.011719 C 103.671875 66.011719 105 59.632812 100.960938 55.207031 C 94.328125 48.023438 84 53.195312 78.808594 59.460938 C 76.558594 62.160156 74.480469 65.09375 72.632812 68.082031 C 71.078125 70.550781 68.480469 74.230469 69.519531 77.332031 C 71.25 76.585938 72.980469 75.898438 74.652344 75.148438 C 72.578125 70.667969 70.097656 66.472656 67.210938 62.449219 C 64.730469 59 62.078125 55.152344 58.382812 53.023438 C 54.867188 51.011719 50.421875 51.183594 47.597656 54.347656 C 45.289062 56.933594 45 60.78125 45.347656 64.058594 C 46.269531 72.332031 50.539062 80.089844 55.671875 86.46875 C 60.691406 92.675781 67.847656 98.882812 75.867188 100.550781 C 77.421875 100.894531 78.171875 99 76.902344 98.078125 Z M 76.902344 98.078125 " fill-opacity="1" fill-rule="nonzero"/></svg>