<svg xmlns="http://www.w3.org/2000/svg" xmlns:xlink="http://www.w3.org/1999/xlink" width="200" zoomAndPan="magnify" viewBox="0 0 150 149.999998" height="200" preserveAspectRatio="xMidYMid meet" version="1.0"><defs><clipPath id="320ab0cdd0"><path d="M 96 98 L 101.835938 98 L 101.835938 105 L 96 105 Z M 96 98 " clip-rule="nonzero"/></clipPath></defs><path fill="#ff0000" d="M 62.324219 45.980469 C 64.796875 46.835938 66.398438 49.316406 66.304688 51.949219 C 66.269531 52.988281 66.113281 54.046875 66.011719 55.082031 C 65.796875 57.207031 65.929688 59.640625 67.511719 61.070312 C 64.820312 61.691406 62.128906 62.316406 59.433594 62.941406 C 57.808594 63.316406 56.160156 63.695312 54.488281 63.660156 C 52.820312 63.628906 51.097656 63.136719 49.886719 61.980469 C 48.054688 60.226562 47.847656 57.027344 49.441406 55.050781 C 50.09375 54.242188 51.019531 53.679688 52.019531 53.410156 C 52.519531 53.273438 53.039062 53.210938 53.558594 53.21875 C 54.074219 53.230469 54.652344 53.320312 55.160156 53.367188 C 55.683594 53.417969 56.265625 53.472656 56.265625 53.472656 C 56.265625 53.472656 55.984375 51.921875 55.941406 51.480469 C 55.847656 50.507812 56.011719 49.511719 56.402344 48.617188 C 57.3125 46.542969 59.492188 44.996094 62.324219 45.980469 Z M 62.324219 45.980469 " fill-opacity="1" fill-rule="nonzero"/><path fill="#ff0000" d="M 80.898438 64.847656 C 82.035156 64.832031 83.050781 65.609375 83.398438 66.695312 C 83.535156 67.125 83.625 67.582031 83.734375 68.019531 C 83.960938 68.917969 84.367188 69.890625 85.222656 70.242188 C 84.214844 70.894531 83.207031 71.546875 82.199219 72.199219 C 81.589844 72.59375 80.972656 72.992188 80.285156 73.226562 C 79.597656 73.460938 78.824219 73.511719 78.160156 73.21875 C 77.152344 72.777344 76.601562 71.5 76.964844 70.457031 C 77.113281 70.027344 77.410156 69.664062 77.777344 69.40625 C 77.960938 69.273438 78.164062 69.171875 78.378906 69.097656 C 78.589844 69.027344 78.839844 68.976562 79.054688 68.921875 C 79.273438 68.867188 79.519531 68.800781 79.519531 68.800781 C 79.519531 68.800781 79.179688 68.210938 79.097656 68.035156 C 78.914062 67.652344 78.835938 67.222656 78.867188 66.800781 C 78.933594 65.820312 79.597656 64.867188 80.898438 64.847656 Z M 80.898438 64.847656 " fill-opacity="1" fill-rule="nonzero"/><path fill="#ff0000" d="M 75.960938 83.527344 C 77.050781 83.902344 77.757812 84.992188 77.71875 86.148438 C 77.703125 86.605469 77.636719 87.070312 77.59375 87.527344 C 77.503906 88.460938 77.566406 89.53125 78.261719 90.15625 C 77.078125 90.433594 75.894531 90.710938 74.714844 90.988281 C 74 91.160156 73.273438 91.328125 72.539062 91.3125 C 71.804688 91.300781 71.046875 91.085938 70.511719 90.582031 C 69.703125 89.8125 69.609375 88.40625 70.308594 87.535156 C 70.59375 87.179688 71 86.929688 71.441406 86.808594 C 71.660156 86.75 71.890625 86.71875 72.117188 86.722656 C 72.34375 86.726562 72.597656 86.765625 72.820312 86.785156 C 73.050781 86.808594 73.308594 86.832031 73.308594 86.832031 C 73.308594 86.832031 73.179688 86.148438 73.164062 85.953125 C 73.121094 85.527344 73.191406 85.089844 73.363281 84.695312 C 73.757812 83.78125 74.710938 83.101562 75.960938 83.527344 Z M 75.960938 83.527344 " fill-opacity="1" fill-rule="nonzero"/><g clip-path="url(#320ab0cdd0)"><path fill="#ff0000" d="M 96.371094 103.742188 C 96.707031 104.511719 97.535156 104.957031 98.367188 104.859375 C 98.699219 104.820312 99.027344 104.738281 99.351562 104.679688 C 100.019531 104.554688 100.792969 104.53125 101.289062 105 C 101.414062 104.121094 101.539062 103.242188 101.664062 102.363281 C 101.742188 101.832031 101.816406 101.292969 101.761719 100.757812 C 101.707031 100.222656 101.503906 99.6875 101.105469 99.328125 C 100.503906 98.789062 99.484375 98.808594 98.898438 99.371094 C 98.660156 99.601562 98.507812 99.914062 98.449219 100.242188 C 98.417969 100.40625 98.414062 100.574219 98.429688 100.738281 C 98.445312 100.902344 98.492188 101.085938 98.519531 101.25 C 98.550781 101.414062 98.582031 101.597656 98.582031 101.597656 C 98.582031 101.597656 98.082031 101.550781 97.941406 101.546875 C 97.632812 101.542969 97.320312 101.625 97.046875 101.773438 C 96.414062 102.121094 95.984375 102.859375 96.371094 103.742188 Z M 96.371094 103.742188 " fill-opacity="1" fill-rule="nonzero"/></g><path fill="#ff0000" d="M 63.117188 71.28125 C 65.203125 70.835938 67.527344 72.519531 67.628906 74.660156 C 67.703125 76.257812 66.71875 77.683594 65.894531 79.054688 C 65.074219 80.425781 64.367188 82.117188 65.007812 83.582031 C 63.339844 82.605469 61.296875 82.664062 59.378906 82.484375 C 57.460938 82.300781 55.332031 81.679688 54.433594 79.960938 C 53.648438 78.464844 54.195312 76.402344 55.613281 75.492188 C 56.796875 74.734375 58.378906 74.949219 59.542969 75.710938 C 59.679688 75.800781 59.953125 75.980469 59.953125 75.980469 C 59.953125 75.980469 59.933594 75.457031 59.9375 75.324219 C 59.949219 74.972656 60.003906 74.621094 60.101562 74.285156 C 60.296875 73.605469 60.648438 72.972656 61.125 72.453125 C 61.660156 71.878906 62.351562 71.449219 63.117188 71.28125 Z M 63.117188 71.28125 " fill-opacity="1" fill-rule="nonzero"/><path fill="#ff0000" d="M 89.597656 83.722656 C 90.523438 83.335938 91.746094 83.914062 91.976562 84.894531 C 92.148438 85.628906 91.8125 86.375 91.550781 87.082031 C 91.289062 87.785156 91.105469 88.632812 91.527344 89.253906 C 90.671875 88.945312 89.734375 89.152344 88.828125 89.234375 C 87.921875 89.320312 86.886719 89.214844 86.324219 88.5 C 85.832031 87.875 85.90625 86.871094 86.484375 86.324219 C 86.96875 85.871094 87.71875 85.835938 88.324219 86.085938 C 88.394531 86.113281 88.535156 86.175781 88.535156 86.175781 C 88.535156 86.175781 88.480469 85.933594 88.472656 85.871094 C 88.449219 85.707031 88.445312 85.539062 88.460938 85.375 C 88.492188 85.042969 88.597656 84.722656 88.777344 84.441406 C 88.972656 84.125 89.257812 83.867188 89.597656 83.722656 Z M 89.597656 83.722656 " fill-opacity="1" fill-rule="nonzero"/><path fill="#ff0000" d="M 82.828125 99.542969 C 81.953125 100.136719 81.753906 101.550781 82.480469 102.320312 C 83.019531 102.898438 83.863281 103.03125 84.632812 103.207031 C 85.402344 103.382812 86.246094 103.710938 86.546875 104.441406 C 86.773438 103.507812 87.496094 102.796875 88.089844 102.042969 C 88.683594 101.292969 89.191406 100.316406 88.890625 99.402344 C 88.628906 98.605469 87.707031 98.09375 86.898438 98.292969 C 86.222656 98.457031 85.757812 99.101562 85.628906 99.78125 C 85.613281 99.859375 85.585938 100.019531 85.585938 100.019531 C 85.585938 100.019531 85.402344 99.832031 85.355469 99.789062 C 85.226562 99.671875 85.082031 99.570312 84.929688 99.488281 C 84.625 99.328125 84.277344 99.234375 83.929688 99.230469 C 83.539062 99.222656 83.148438 99.324219 82.828125 99.542969 Z M 82.828125 99.542969 " fill-opacity="1" fill-rule="nonzero"/></svg>